<?xml version="1.0" encoding="UTF-8"?>
<svg version="1.1" xmlns="http://www.w3.org/2000/svg" width="557" height="448">
<path d="M0 0 C5.01705721 -0.07442006 10.03378972 -0.12872908 15.05126953 -0.16479492 C16.75640463 -0.17983738 18.46150132 -0.20027653 20.16650391 -0.22631836 C22.62412012 -0.26290284 25.08122269 -0.27977173 27.5390625 -0.29296875 C28.29555084 -0.30845261 29.05203918 -0.32393646 29.83145142 -0.33988953 C35.44268647 -0.34165473 39.45977959 0.88314966 43.875 4.5625 C45 6 45 6 45 8 C45.66 8 46.32 8 47 8 C50.79258674 14.60936203 50.79028715 20.54003667 50 28 C48.52882195 32.48897917 45.61307642 35.98910299 42 39 C41.34 39 40.68 39 40 39 C40.81404297 40.62808594 40.81404297 40.62808594 41.64453125 42.2890625 C45.95703125 50.9140625 45.95703125 50.9140625 46.99853516 53.01660156 C47.90348438 54.80885107 48.8609214 56.57436161 49.82421875 58.3359375 C51 61 51 61 50 64 C47.58145554 64.13536629 45.17050217 64.23420279 42.75 64.3125 C42.06808594 64.35439453 41.38617188 64.39628906 40.68359375 64.43945312 C37.12074564 64.52593002 35.40982788 64.37709857 32.75 61.9296875 C30.77307119 58.62009686 28.93685347 55.27670337 27.25 51.8125 C26.93417969 51.18408203 26.61835937 50.55566406 26.29296875 49.90820312 C24 45.26767113 24 45.26767113 24 43 C21.36 43 18.72 43 16 43 C16.00785522 43.90093384 16.00785522 43.90093384 16.01586914 44.82006836 C16.03658014 47.52586838 16.04964125 50.23165177 16.0625 52.9375 C16.07087891 53.88302734 16.07925781 54.82855469 16.08789062 55.80273438 C16.09272461 57.15141602 16.09272461 57.15141602 16.09765625 58.52734375 C16.10551147 59.77632446 16.10551147 59.77632446 16.11352539 61.05053711 C16 63 16 63 15 64 C12.66839945 64.09909302 10.33370058 64.12970504 8 64.125 C6.72125 64.12757813 5.4425 64.13015625 4.125 64.1328125 C1 64 1 64 0 63 C-0.0940067 61.03630847 -0.11743381 59.06920801 -0.11352539 57.10327148 C-0.11344986 55.84203964 -0.11337433 54.5808078 -0.11329651 53.28135681 C-0.1081891 51.89460206 -0.10297309 50.50784771 -0.09765625 49.12109375 C-0.09579201 47.71004791 -0.09436814 46.29900143 -0.09336853 44.88795471 C-0.08954379 41.16759465 -0.0797139 37.4472734 -0.06866455 33.72692871 C-0.05844948 29.93319219 -0.05387071 26.13944942 -0.04882812 22.34570312 C-0.03809158 14.89711769 -0.0210157 7.44856428 0 0 Z M16 14 C16 18.95 16 23.9 16 29 C18.8153125 29.0928125 18.8153125 29.0928125 21.6875 29.1875 C23.27111328 29.23970703 23.27111328 29.23970703 24.88671875 29.29296875 C28.41152174 28.96127462 30.19657084 28.12622425 33 26 C34.658596 23.19103937 34.658596 23.19103937 35 20 C33.69132936 17.05549106 32.90597137 15.45298569 30 14 C27.62597499 13.92883618 25.24999323 13.91590915 22.875 13.9375 C19.471875 13.9684375 19.471875 13.9684375 16 14 Z " fill="#0C2233" transform="translate(53,228)"/>
<path d="M0 0 C0 0.66 0 1.32 0 2 C0.5775 2.226875 1.155 2.45375 1.75 2.6875 C4.60113897 4.3506644 6.04776661 6.35503863 8 9 C8.598125 9.680625 9.19625 10.36125 9.8125 11.0625 C11 13 11 13 10.8359375 14.98046875 C9.70413635 17.71477339 8.50467011 18.11360659 5.8125 19.25 C-1.09572833 21.97606792 -1.09572833 21.97606792 -5 21 C-6.47867775 19.33540663 -7.60951733 17.65168291 -8.7265625 15.7265625 C-10.30095552 13.59195601 -11.52007764 12.91649305 -14 12 C-18.93476739 11.29968648 -22.91162413 11.48549504 -27.4375 13.625 C-31.1891384 17.10212828 -32.82360499 20.33088594 -33.36328125 25.4375 C-33.33814453 27.2009375 -33.33814453 27.2009375 -33.3125 29 C-33.30669922 30.7634375 -33.30669922 30.7634375 -33.30078125 32.5625 C-32.99697903 36.03452533 -32.34204322 38.78952911 -31 42 C-29.08235826 43.3762794 -29.08235826 43.3762794 -27 44 C-26.34 44.33 -25.68 44.66 -25 45 C-22.90051399 45.17471848 -20.79375592 45.26717852 -18.6875 45.3125 C-16.99173828 45.36857422 -16.99173828 45.36857422 -15.26171875 45.42578125 C-11.33734489 44.91349772 -9.79551197 43.74079554 -7 41 C-5.21037181 38.38142305 -5.21037181 38.38142305 -4 36 C-0.68360289 36.53490276 2.53004206 37.36756817 5.75 38.3125 C6.91789062 38.64701172 6.91789062 38.64701172 8.109375 38.98828125 C10 40 10 40 10.94140625 41.80859375 C11.02302544 44.86115155 9.91914905 46.26810487 8.1875 48.75 C7.64480469 49.54921875 7.10210937 50.3484375 6.54296875 51.171875 C6.03378906 51.77515625 5.52460938 52.3784375 5 53 C4.34 53 3.68 53 3 53 C3 53.66 3 54.32 3 55 C-5.06439508 61.85583451 -14.82167231 62.67757319 -25 62 C-33.75704374 61.12288092 -39.37238334 56.97875656 -45.3125 50.6875 C-51.96854261 42.30850358 -51.91745018 32.23627001 -51 22 C-49.42412649 15.22463423 -45.87956975 8.97716114 -41 4 C-38.8125 2.78125 -38.8125 2.78125 -37 2 C-37 1.34 -37 0.68 -37 0 C-25.77454988 -8.16396372 -11.55040334 -6.25646848 0 0 Z " fill="#071F32" transform="translate(293,231)"/>
<path d="M0 0 C0.74886475 0.00523682 1.49772949 0.01047363 2.26928711 0.01586914 C3.07817383 0.0190918 3.88706055 0.02231445 4.72045898 0.02563477 C5.5705957 0.03401367 6.42073242 0.04239258 7.29663086 0.05102539 C8.15063477 0.05553711 9.00463867 0.06004883 9.88452148 0.06469727 C12.00108749 0.07652166 14.11761771 0.0944577 16.23413086 0.11352539 C16.50225586 0.86891602 16.77038086 1.62430664 17.04663086 2.40258789 C20.08745231 10.94489551 23.17652776 19.46901959 26.28198242 27.98803711 C28.60060634 34.35381359 30.88014842 40.7318201 33.13256836 47.12133789 C34.49377598 50.81880256 36.02457069 54.43107402 37.63256836 58.02758789 C38.33134481 60.45061791 38.05373599 61.76115221 37.23413086 64.11352539 C34.79544918 64.2215113 32.36153953 64.30079128 29.92163086 64.36352539 C29.23133789 64.39704102 28.54104492 64.43055664 27.82983398 64.46508789 C24.82453633 64.52316128 22.79447443 64.55236288 20.37866211 62.66040039 C19.23413086 60.11352539 19.23413086 60.11352539 17.23413086 51.11352539 C10.30413086 51.11352539 3.37413086 51.11352539 -3.76586914 51.11352539 C-4.21961914 53.07290039 -4.67336914 55.03227539 -5.14086914 57.05102539 C-5.91430664 60.39086914 -5.91430664 60.39086914 -6.76586914 63.11352539 C-9.61782137 64.5395015 -12.09048089 64.24555059 -15.26586914 64.23852539 C-17.01383789 64.24239258 -17.01383789 64.24239258 -18.79711914 64.24633789 C-21.76586914 64.11352539 -21.76586914 64.11352539 -23.76586914 63.11352539 C-23.06500805 57.61446141 -21.41019501 52.59020964 -19.64086914 47.36352539 C-19.33246094 46.44555176 -19.02405273 45.52757812 -18.70629883 44.58178711 C-15.24407284 34.39680923 -11.4840975 24.29675767 -7.16430664 14.44165039 C-5.95013247 11.55205153 -4.98454881 8.75166705 -4.14086914 5.73852539 C-2.57504724 0.16554638 -2.57504724 0.16554638 0 0 Z M6.23413086 21.11352539 C4.58413086 26.39352539 2.93413086 31.67352539 1.23413086 37.11352539 C4.86413086 37.11352539 8.49413086 37.11352539 12.23413086 37.11352539 C10.58413086 31.83352539 8.93413086 26.55352539 7.23413086 21.11352539 C6.90413086 21.11352539 6.57413086 21.11352539 6.23413086 21.11352539 Z " fill="#0A2133" transform="translate(326.765869140625,227.886474609375)"/>
<path d="M0 0 C5.94 0 11.88 0 18 0 C21.46018815 7.96891817 24.43765749 15.99514765 27.26293945 24.20532227 C29.54963744 30.81140751 32.01172191 37.3323522 34.60302734 43.82470703 C36.03446034 47.42932334 37.41310512 51.04920556 38.703125 54.70703125 C38.95223633 55.40932861 39.20134766 56.11162598 39.45800781 56.83520508 C40 59 40 59 40 64 C34.72 64 29.44 64 24 64 C20 54.375 20 54.375 20 51 C9.605 51.495 9.605 51.495 -1 52 C-1.639375 53.794375 -2.27875 55.58875 -2.9375 57.4375 C-4.875 62.875 -4.875 62.875 -6 64 C-8.31074168 64.09932392 -10.62462942 64.12969618 -12.9375 64.125 C-14.83822266 64.12886719 -14.83822266 64.12886719 -16.77734375 64.1328125 C-20 64 -20 64 -22 63 C-20.64504624 58.08316022 -19.23656768 53.31061626 -17.0625 48.6875 C-14.88442565 44.00008524 -13.47596313 39.16653322 -12.0078125 34.21875 C-10.84107788 30.49243477 -9.44349479 26.91326241 -7.9296875 23.31640625 C-6.83064111 20.57802597 -5.91569227 17.80516176 -5 15 C-4.57116492 13.71065367 -4.14143388 12.42160509 -3.7109375 11.1328125 C-3.51290527 10.53871582 -3.31487305 9.94461914 -3.11083984 9.33251953 C-2.07389323 6.22167969 -1.03694661 3.11083984 0 0 Z M9 21 C6.91864693 26.29798964 5.28708387 31.45563871 4 37 C7.63 37 11.26 37 15 37 C13.35 31.72 11.7 26.44 10 21 C9.67 21 9.34 21 9 21 Z " fill="#082033" transform="translate(127,228)"/>
<path d="M0 0 C4.4631807 2.68355801 9.19384173 5.63171857 10.57421875 10.83984375 C10.66574219 11.59007812 10.75726563 12.3403125 10.8515625 13.11328125 C6.53433794 16.31638334 2.18019569 17.4715859 -3.1484375 17.11328125 C-5.0390625 16.2421875 -5.0390625 16.2421875 -6.7734375 15.11328125 C-10.83131196 12.7086149 -12.66450421 13.01517514 -17.1484375 14.11328125 C-17.1484375 15.43328125 -17.1484375 16.75328125 -17.1484375 18.11328125 C-12.13590482 22.10034923 -6.25790605 24.534366 -0.48828125 27.234375 C5.50239919 30.60457066 8.83052439 35.07120503 11.8515625 41.11328125 C12.64952478 47.41849136 11.77335738 52.97166388 7.8515625 58.11328125 C6.8615625 58.44328125 5.8715625 58.77328125 4.8515625 59.11328125 C4.8515625 59.77328125 4.8515625 60.43328125 4.8515625 61.11328125 C-2.72755129 65.26374833 -11.08444288 66.43704252 -19.58203125 64.58203125 C-27.69810788 62.0637208 -32.39698095 58.30459852 -37.046875 51.234375 C-38.1484375 49.11328125 -38.1484375 49.11328125 -38.1484375 46.11328125 C-26.16135925 43.46001492 -26.16135925 43.46001492 -22.1484375 44.11328125 C-21.4471875 44.93828125 -20.7459375 45.76328125 -20.0234375 46.61328125 C-15.97978651 50.12949951 -12.78490569 49.50806579 -7.59765625 49.2890625 C-6.78941406 49.23105469 -5.98117187 49.17304688 -5.1484375 49.11328125 C-5.06617082 46.06941401 -5.17235533 44.04152777 -6.1484375 41.11328125 C-8.91425065 39.98745917 -8.91425065 39.98745917 -12.1484375 39.11328125 C-20.38631971 36.18059518 -28.4765592 32.91605286 -33.33984375 25.23046875 C-35.31611641 20.05588043 -34.94259463 13.40524275 -33.0234375 8.23828125 C-26.38086101 -2.83267957 -11.39818679 -5.11705832 0 0 Z " fill="#0E2436" transform="translate(497.1484375,227.88671875)"/>
<path d="M0 0 C4.76480746 -0.02501716 9.52957534 -0.04300757 14.29443359 -0.05493164 C15.91000028 -0.05991102 17.52556258 -0.06669694 19.14111328 -0.07543945 C39.17787649 -0.18102686 39.17787649 -0.18102686 47 1 C48 2 48 2 48.09765625 4.72265625 C48.08605469 5.82480469 48.07445312 6.92695313 48.0625 8.0625 C48.05347656 9.16722656 48.04445313 10.27195313 48.03515625 11.41015625 C48.02355469 12.26480469 48.01195312 13.11945313 48 14 C44.10281829 15.86665742 41.45915815 16.13965761 37.1875 15.625 C36.21167969 15.51414063 35.23585938 15.40328125 34.23046875 15.2890625 C33.49441406 15.19367188 32.75835937 15.09828125 32 15 C32.00444122 15.59690643 32.00888245 16.19381287 32.01345825 16.80880737 C32.05760581 23.00516371 32.08783059 29.20147558 32.10986328 35.39794922 C32.11993892 37.71242079 32.13359975 40.02687959 32.15087891 42.34130859 C32.17505865 45.66246693 32.1864673 48.9834574 32.1953125 52.3046875 C32.20563507 53.34430634 32.21595764 54.38392517 32.22659302 55.45504761 C32.22681961 56.89631516 32.22681961 56.89631516 32.22705078 58.36669922 C32.231492 59.21497284 32.23593323 60.06324646 32.24050903 60.93722534 C32 63 32 63 30 65 C26.77734375 65.23046875 26.77734375 65.23046875 22.9375 65.1875 C21.66777344 65.18105469 20.39804687 65.17460937 19.08984375 65.16796875 C16 65 16 65 15 64 C14.90688111 62.49581261 14.88253972 60.98728644 14.88647461 59.48022461 C14.88655014 58.51930405 14.88662567 57.55838348 14.88670349 56.56834412 C14.89186478 55.523564 14.89702606 54.47878387 14.90234375 53.40234375 C14.9037587 52.33834854 14.90517365 51.27435333 14.90663147 50.17811584 C14.91224936 46.76454917 14.92480489 43.351047 14.9375 39.9375 C14.94251269 37.62955824 14.947076 35.32161545 14.95117188 33.01367188 C14.9622246 27.34242574 14.97898013 21.67121747 15 16 C13.94039063 16.02320313 12.88078125 16.04640625 11.7890625 16.0703125 C10.4010487 16.08906944 9.0130273 16.10726972 7.625 16.125 C6.57699219 16.15013672 6.57699219 16.15013672 5.5078125 16.17578125 C3.67102514 16.19344267 1.83398037 16.10303261 0 16 C-2 14 -2 14 -2.265625 12.01171875 C-2.26046875 11.24472656 -2.2553125 10.47773438 -2.25 9.6875 C-2.25515625 8.92824219 -2.2603125 8.16898438 -2.265625 7.38671875 C-1.96181491 4.65689576 -1.05569423 2.52365435 0 0 Z " fill="#081E2E" transform="translate(359,227)"/>
<path d="M0 0 C4.95 0 9.9 0 15 0 C15 16.17 15 32.34 15 49 C23.13748444 48.96044452 23.13748444 48.96044452 31.27490234 48.90991211 C32.28504395 48.90741455 33.29518555 48.90491699 34.3359375 48.90234375 C35.89127197 48.89448853 35.89127197 48.89448853 37.47802734 48.88647461 C40 49 40 49 42 50 C42.02685412 52.31243792 42.04632841 54.6249627 42.0625 56.9375 C42.07410156 58.22527344 42.08570313 59.51304687 42.09765625 60.83984375 C42 64 42 64 41 65 C37.90918535 65.1011692 34.84117445 65.13968558 31.75 65.1328125 C30.82155273 65.13376923 29.89310547 65.13472595 28.93652344 65.13571167 C26.96940035 65.13639355 25.00227504 65.13453872 23.03515625 65.13037109 C20.01296974 65.12502295 16.99093185 65.13031582 13.96875 65.13671875 C12.06249967 65.13605797 10.15624943 65.13477681 8.25 65.1328125 C6.88439941 65.13584885 6.88439941 65.13584885 5.49121094 65.13894653 C-0.88505031 65.11494969 -0.88505031 65.11494969 -2 64 C-2.10445557 62.07782922 -2.13855137 60.15180181 -2.14526367 58.22680664 C-2.15164352 56.99205093 -2.15802338 55.75729523 -2.16459656 54.48512268 C-2.16612512 53.12680093 -2.16723914 51.76847866 -2.16796875 50.41015625 C-2.1711797 49.02632105 -2.17454365 47.6424862 -2.17805481 46.25865173 C-2.18405224 43.35414849 -2.18589409 40.44967502 -2.18530273 37.54516602 C-2.18520109 33.81797854 -2.19885272 30.09098147 -2.21607494 26.36383915 C-2.2271778 23.50458392 -2.22922247 20.64537497 -2.22869301 17.78610039 C-2.22987574 16.41174094 -2.23431388 15.03738039 -2.24202538 13.66304207 C-2.25178998 11.74291548 -2.24769215 9.82273338 -2.24291992 7.90258789 C-2.24434494 6.80862198 -2.24576996 5.71465607 -2.24723816 4.58753967 C-2 2 -2 2 0 0 Z " fill="#061E31" transform="translate(173,227)"/>
<path d="M0 0 C1.299375 -0.02126953 1.299375 -0.02126953 2.625 -0.04296875 C5 0.1875 5 0.1875 8 2.1875 C8.30571263 4.90103607 8.41992542 7.38171496 8.3984375 10.09765625 C8.40130768 10.89795761 8.40417786 11.69825897 8.40713501 12.52281189 C8.40918144 14.22851259 8.40361128 15.93423644 8.39111328 17.63989258 C8.37538129 20.18823643 8.39077386 22.73491601 8.41015625 25.28320312 C8.42087136 33.5790252 8.02492283 41.62495759 6.6015625 49.80859375 C6.47695648 50.5256398 6.35235046 51.24268585 6.22396851 51.98146057 C5.26868278 56.91881722 5.26868278 56.91881722 3 59.1875 C4.2065625 60.239375 4.2065625 60.239375 5.4375 61.3125 C8.29136371 64.51439587 8.91179159 65.95349622 9 70.1875 C8.24186193 73.15113065 7.39172773 74.7667554 5.3125 77 C2.03424007 78.68343078 -0.36638902 78.57681546 -4 78.1875 C-7.37874731 76.63510259 -7.94200135 75.32114906 -9.4375 71.875 C-10.11636853 67.42463965 -9.5703274 65.83570664 -7 62.1875 C-4.3125 60.3125 -4.3125 60.3125 -2 59.1875 C-2.99 58.8575 -3.98 58.5275 -5 58.1875 C-7.58565381 54.00585379 -8.43208287 50.5406851 -8.73046875 45.671875 C-8.81135742 44.42833252 -8.89224609 43.18479004 -8.97558594 41.90356445 C-9.04551758 40.59476318 -9.11544922 39.28596191 -9.1875 37.9375 C-9.26687426 36.58615936 -9.34662869 35.23484101 -9.42675781 33.88354492 C-9.85268352 26.42748813 -10.19053611 18.96866409 -10.25 11.5 C-10.25926514 10.78360352 -10.26853027 10.06720703 -10.27807617 9.32910156 C-10.25518762 5.71540338 -10.06600835 4.28651252 -8 1.1875 C-5.07345473 0.21198491 -3.05345004 0.02271912 0 0 Z " fill="#FBF024" transform="translate(227,221.8125)"/>
<path d="M0 0 C0 0.66 0 1.32 0 2 C0.5775 2.226875 1.155 2.45375 1.75 2.6875 C4.60113897 4.3506644 6.04776661 6.35503863 8 9 C8.598125 9.680625 9.19625 10.36125 9.8125 11.0625 C11 13 11 13 10.8359375 14.98046875 C9.70413635 17.71477339 8.50467011 18.11360659 5.8125 19.25 C-1.09572833 21.97606792 -1.09572833 21.97606792 -5 21 C-6.47867775 19.33540663 -7.60951733 17.65168291 -8.7265625 15.7265625 C-10.30095552 13.59195601 -11.52007764 12.91649305 -14 12 C-18.93476739 11.29968648 -22.91162413 11.48549504 -27.4375 13.625 C-31.1891384 17.10212828 -32.82360499 20.33088594 -33.36328125 25.4375 C-33.33814453 27.2009375 -33.33814453 27.2009375 -33.3125 29 C-33.30863281 30.175625 -33.30476563 31.35125 -33.30078125 32.5625 C-32.99697903 36.03452533 -32.34204322 38.78952911 -31 42 C-29.08235826 43.3762794 -29.08235826 43.3762794 -27 44 C-26.34 44.33 -25.68 44.66 -25 45 C-22.62597499 45.07116382 -20.24999323 45.08409085 -17.875 45.0625 C-16.59367187 45.05347656 -15.31234375 45.04445313 -13.9921875 45.03515625 C-13.00476563 45.02355469 -12.01734375 45.01195312 -11 45 C-11 45.66 -11 46.32 -11 47 C-25.31306714 48.84944126 -25.31306714 48.84944126 -31.44921875 45.203125 C-33.17787592 43.86200054 -34.60653381 42.69918422 -36 41 C-36.26464844 38.81103516 -36.26464844 38.81103516 -36.109375 36.2890625 C-36.03396484 34.91621094 -36.03396484 34.91621094 -35.95703125 33.515625 C-35.88871094 32.56171875 -35.82039063 31.6078125 -35.75 30.625 C-35.69714844 29.67882812 -35.64429688 28.73265625 -35.58984375 27.7578125 C-35.16032226 20.64573577 -35.16032226 20.64573577 -34.34863281 17.37646484 C-33.69072064 14.73852246 -33.69072064 14.73852246 -36 12 C-36.99 11.67 -37.98 11.34 -39 11 C-39 10.34 -39 9.68 -39 9 C-40.32 8.67 -41.64 8.34 -43 8 C-43.33 9.32 -43.66 10.64 -44 12 C-44.66 12 -45.32 12 -46 12 C-44.60846256 7.57238086 -42.47928514 5.0443745 -39 2 C-38.34 2 -37.68 2 -37 2 C-37 1.34 -37 0.68 -37 0 C-25.77454988 -8.16396372 -11.55040334 -6.25646848 0 0 Z " fill="#082031" transform="translate(293,231)"/>
<path d="M0 0 C1.31828041 0.00068733 1.31828041 0.00068733 2.66319275 0.00138855 C4.5200231 0.00440849 6.37685098 0.01228709 8.23364258 0.0246582 C11.08228485 0.04292029 13.93060216 0.04516781 16.77929688 0.04492188 C18.58203407 0.04983697 20.38476906 0.05566525 22.1875 0.0625 C23.04271744 0.06361282 23.89793488 0.06472565 24.77906799 0.06587219 C30.79519796 0.11439586 30.79519796 0.11439586 33.02734375 1.23046875 C33.05418687 4.04303156 33.07410563 6.85534116 33.08984375 9.66796875 C33.09822266 10.47041016 33.10660156 11.27285156 33.11523438 12.09960938 C33.12385805 14.14342096 33.07962525 16.18730777 33.02734375 18.23046875 C32.02734375 19.23046875 32.02734375 19.23046875 30.27464294 19.35072327 C29.51297318 19.34850266 28.75130341 19.34628204 27.96655273 19.34399414 C27.10573593 19.34391861 26.24491913 19.34384308 25.35801697 19.34376526 C24.42260574 19.33860397 23.48719452 19.33344269 22.5234375 19.328125 C21.57042252 19.32671005 20.61740753 19.3252951 19.63551331 19.32383728 C16.5785921 19.31822027 13.52174298 19.30566491 10.46484375 19.29296875 C8.39778751 19.28795594 6.33073013 19.28339266 4.26367188 19.27929688 C-0.81513213 19.26824531 -5.89388195 19.2509693 -10.97265625 19.23046875 C-12.48980915 16.19616294 -12.19778941 13.0564091 -12.22265625 9.73046875 C-12.24328125 9.04082031 -12.26390625 8.35117187 -12.28515625 7.640625 C-12.30078125 5.63671875 -12.30078125 5.63671875 -11.97265625 2.23046875 C-8.01124542 -0.4104718 -4.59463195 -0.03869558 0 0 Z " fill="#E26A3F" transform="translate(422.97265625,272.76953125)"/>
<path d="M0 0 C1.26096748 0.03025772 1.26096748 0.03025772 2.54740906 0.06112671 C3.45062393 0.09332306 4.35383881 0.12551941 5.28442383 0.15869141 C6.67640739 0.19623032 6.67640739 0.19623032 8.09651184 0.23452759 C11.06186432 0.31673081 14.02655112 0.41331928 16.99145508 0.51025391 C19.00119347 0.56849313 21.01095921 0.62579641 23.02075195 0.68212891 C27.94886953 0.82231021 32.87643815 0.97539473 37.80395508 1.13525391 C37.83080603 3.61449192 37.85072055 6.0934423 37.86645508 8.57275391 C37.87483398 9.27980469 37.88321289 9.98685547 37.8918457 10.71533203 C37.90049095 12.5221895 37.85615519 14.32912993 37.80395508 16.13525391 C36.27311083 17.66609815 34.89192364 17.26241169 32.7590332 17.26464844 C31.90144409 17.2678006 31.04385498 17.27095276 30.16027832 17.27420044 C29.22800415 17.27217621 28.29572998 17.27015198 27.33520508 17.26806641 C25.90924011 17.2695015 25.90924011 17.2695015 24.45446777 17.27096558 C22.44026626 17.27164747 20.42606256 17.26979253 18.41186523 17.265625 C15.31725153 17.26027689 12.22278298 17.26556968 9.12817383 17.27197266 C7.17635059 17.27131188 5.22452744 17.27003072 3.27270508 17.26806641 C1.87429382 17.27110275 1.87429382 17.27110275 0.44763184 17.27420044 C-0.40995728 17.27104828 -1.26754639 17.26789612 -2.15112305 17.26464844 C-2.90977661 17.26385284 -3.66843018 17.26305725 -4.45007324 17.26223755 C-6.19604492 17.13525391 -6.19604492 17.13525391 -7.19604492 16.13525391 C-7.3478387 13.82623694 -7.41785614 11.51158322 -7.44604492 9.19775391 C-7.47182617 7.93060547 -7.49760742 6.66345703 -7.52416992 5.35791016 C-7.41588867 4.29443359 -7.30760742 3.23095703 -7.19604492 2.13525391 C-4.07328019 0.05341075 -3.51572614 -0.10557736 0 0 Z " fill="#059582" transform="translate(418.196044921875,226.86474609375)"/>
<path d="M0 0 C1.18510414 -0.00287018 1.18510414 -0.00287018 2.39414978 -0.00579834 C4.06265583 -0.00715833 5.73117253 -0.00347488 7.3996582 0.00488281 C9.95873655 0.01559942 12.51711517 0.00497418 15.07617188 -0.0078125 C16.69661614 -0.00649115 18.31705996 -0.00392927 19.9375 0 C20.70522232 -0.00404846 21.47294464 -0.00809692 22.26393127 -0.01226807 C27.67241268 0.03569393 27.67241268 0.03569393 29.90234375 2.265625 C30.1328125 4.76171875 30.1328125 4.76171875 30.08984375 7.703125 C30.08339844 8.67121094 30.07695312 9.63929688 30.0703125 10.63671875 C29.90234375 13.265625 29.90234375 13.265625 28.90234375 16.265625 C25.74900081 17.84229647 22.36472134 17.42859541 18.90234375 17.43359375 C17.71511719 17.43858635 17.71511719 17.43858635 16.50390625 17.44367981 C14.829433 17.4487454 13.15494965 17.45108825 11.48046875 17.45092773 C8.9125924 17.45311627 6.34514416 17.47128109 3.77734375 17.49023438 C2.15234522 17.49316791 0.52734465 17.49515297 -1.09765625 17.49609375 C-1.86851562 17.50327927 -2.639375 17.51046478 -3.43359375 17.51786804 C-8.86882905 17.4944522 -8.86882905 17.4944522 -11.09765625 15.265625 C-11.3984375 12.296875 -11.3984375 12.296875 -11.41015625 8.765625 C-11.42691406 7.6003125 -11.44367188 6.435 -11.4609375 5.234375 C-11.34105469 4.2546875 -11.22117187 3.275 -11.09765625 2.265625 C-7.33532562 -0.24259542 -4.35627258 -0.02303284 0 0 Z " fill="#F7BE12" transform="translate(423.09765625,250.734375)"/>
<path d="M0 0 C1.299375 -0.02126953 1.299375 -0.02126953 2.625 -0.04296875 C5 0.1875 5 0.1875 8 2.1875 C8.30571263 4.90103607 8.41992542 7.38171496 8.3984375 10.09765625 C8.40130768 10.89795761 8.40417786 11.69825897 8.40713501 12.52281189 C8.40918144 14.22851259 8.40361128 15.93423644 8.39111328 17.63989258 C8.37538129 20.18823643 8.39077386 22.73491601 8.41015625 25.28320312 C8.42087136 33.5790252 8.02492283 41.62495759 6.6015625 49.80859375 C6.47695648 50.5256398 6.35235046 51.24268585 6.22396851 51.98146057 C5.26868278 56.91881722 5.26868278 56.91881722 3 59.1875 C4.2065625 60.239375 4.2065625 60.239375 5.4375 61.3125 C8.29136371 64.51439587 8.91179159 65.95349622 9 70.1875 C8.24186193 73.15113065 7.39172773 74.7667554 5.3125 77 C2.03424007 78.68343078 -0.36638902 78.57681546 -4 78.1875 C-7.37874731 76.63510259 -7.94200135 75.32114906 -9.4375 71.875 C-10.11636853 67.42463965 -9.5703274 65.83570664 -7 62.1875 C-4.3125 60.3125 -4.3125 60.3125 -2 59.1875 C-2.99 58.8575 -3.98 58.5275 -5 58.1875 C-7.58565381 54.00585379 -8.43208287 50.5406851 -8.73046875 45.671875 C-8.81135742 44.42833252 -8.89224609 43.18479004 -8.97558594 41.90356445 C-9.04551758 40.59476318 -9.11544922 39.28596191 -9.1875 37.9375 C-9.26687426 36.58615936 -9.34662869 35.23484101 -9.42675781 33.88354492 C-9.85268352 26.42748813 -10.19053611 18.96866409 -10.25 11.5 C-10.25926514 10.78360352 -10.26853027 10.06720703 -10.27807617 9.32910156 C-10.25518762 5.71540338 -10.06600835 4.28651252 -8 1.1875 C-5.07345473 0.21198491 -3.05345004 0.02271912 0 0 Z M-8 6.1875 C-8.24105351 8.65438527 -8.33062925 10.96725279 -8.3125 13.4375 C-8.30976074 14.19877197 -8.30702148 14.96004395 -8.30419922 15.74438477 C-8.16696154 23.90213972 -7.4115503 32.00963304 -6.625 40.125 C-6.56196686 40.79801147 -6.49893372 41.47102295 -6.43399048 42.16442871 C-6.24989015 44.09888243 -6.0509941 46.03191045 -5.8515625 47.96484375 C-5.73635254 49.09140381 -5.62114258 50.21796387 -5.50244141 51.37866211 C-5.15798577 54.38333742 -5.15798577 54.38333742 -3 57.1875 C-0.5 57.6875 -0.5 57.6875 2 57.1875 C4.11339331 54.01741003 4.31013264 52.74598959 4.5625 49.0625 C4.90171607 44.28578393 4.90171607 44.28578393 6 43.1875 C6.11338371 40.64065422 6.16417775 38.12196261 6.16796875 35.57421875 C6.17129715 34.80825882 6.17462555 34.04229889 6.17805481 33.25312805 C6.18312831 31.62814943 6.18546301 30.00316036 6.18530273 28.37817383 C6.18748172 25.89581982 6.20561174 23.41391546 6.22460938 20.93164062 C6.22754474 19.35416819 6.22952858 17.77669364 6.23046875 16.19921875 C6.23765427 15.45741867 6.24483978 14.71561859 6.25224304 13.95133972 C6.23571042 10.20487411 6.09009875 7.36691453 4 4.1875 C2.37536158 4.13354522 0.75021459 4.09472805 -0.875 4.0625 C-1.77992188 4.03929687 -2.68484375 4.01609375 -3.6171875 3.9921875 C-6.18806994 3.94425164 -6.18806994 3.94425164 -8 6.1875 Z " fill="#F0E296" transform="translate(227,221.8125)"/>
<path d="M0 0 C1.31828041 0.00068733 1.31828041 0.00068733 2.66319275 0.00138855 C4.5200231 0.00440849 6.37685098 0.01228709 8.23364258 0.0246582 C11.08228485 0.04292029 13.93060216 0.04516781 16.77929688 0.04492188 C18.58203407 0.04983697 20.38476906 0.05566525 22.1875 0.0625 C23.04271744 0.06361282 23.89793488 0.06472565 24.77906799 0.06587219 C30.79519796 0.11439586 30.79519796 0.11439586 33.02734375 1.23046875 C33.05418687 4.04303156 33.07410563 6.85534116 33.08984375 9.66796875 C33.09822266 10.47041016 33.10660156 11.27285156 33.11523438 12.09960938 C33.12385805 14.14342096 33.07962525 16.18730777 33.02734375 18.23046875 C32.02734375 19.23046875 32.02734375 19.23046875 30.27464294 19.35072327 C29.51297318 19.34850266 28.75130341 19.34628204 27.96655273 19.34399414 C27.10573593 19.34391861 26.24491913 19.34384308 25.35801697 19.34376526 C24.42260574 19.33860397 23.48719452 19.33344269 22.5234375 19.328125 C21.57042252 19.32671005 20.61740753 19.3252951 19.63551331 19.32383728 C16.5785921 19.31822027 13.52174298 19.30566491 10.46484375 19.29296875 C8.39778751 19.28795594 6.33073013 19.28339266 4.26367188 19.27929688 C-0.81513213 19.26824531 -5.89388195 19.2509693 -10.97265625 19.23046875 C-12.48980915 16.19616294 -12.19778941 13.0564091 -12.22265625 9.73046875 C-12.24328125 9.04082031 -12.26390625 8.35117187 -12.28515625 7.640625 C-12.30078125 5.63671875 -12.30078125 5.63671875 -11.97265625 2.23046875 C-8.01124542 -0.4104718 -4.59463195 -0.03869558 0 0 Z M-6.97265625 3.23046875 C-8.15572353 5.59660331 -8.10620233 7.09827611 -8.09765625 9.73046875 C-8.10023438 10.52453125 -8.1028125 11.31859375 -8.10546875 12.13671875 C-8.10543621 14.28965409 -8.10543621 14.28965409 -6.97265625 16.23046875 C-2.34619536 16.25522344 2.28022681 16.27335469 6.90673828 16.28540039 C8.4799873 16.29042312 10.05323167 16.2972425 11.62646484 16.3059082 C13.89031118 16.31806404 16.15409568 16.32371771 18.41796875 16.328125 C19.11915833 16.33328629 19.8203479 16.33844757 20.54278564 16.34376526 C23.96089419 16.3441562 26.67610269 16.06827902 30.02734375 15.23046875 C30.02734375 11.27046875 30.02734375 7.31046875 30.02734375 3.23046875 C17.81734375 3.23046875 5.60734375 3.23046875 -6.97265625 3.23046875 Z " fill="#CD9C7F" transform="translate(422.97265625,272.76953125)"/>
<path d="M0 0 C4.95 0 9.9 0 15 0 C15 16.17 15 32.34 15 49 C23.13748444 48.96044452 23.13748444 48.96044452 31.27490234 48.90991211 C32.28504395 48.90741455 33.29518555 48.90491699 34.3359375 48.90234375 C35.89127197 48.89448853 35.89127197 48.89448853 37.47802734 48.88647461 C40 49 40 49 42 50 C42.02685412 52.31243792 42.04632841 54.6249627 42.0625 56.9375 C42.07410156 58.22527344 42.08570313 59.51304687 42.09765625 60.83984375 C42 64 42 64 41 65 C37.90918535 65.1011692 34.84117445 65.13968558 31.75 65.1328125 C30.82155273 65.13376923 29.89310547 65.13472595 28.93652344 65.13571167 C26.96940035 65.13639355 25.00227504 65.13453872 23.03515625 65.13037109 C20.01296974 65.12502295 16.99093185 65.13031582 13.96875 65.13671875 C12.06249967 65.13605797 10.15624943 65.13477681 8.25 65.1328125 C6.88439941 65.13584885 6.88439941 65.13584885 5.49121094 65.13894653 C-0.88505031 65.11494969 -0.88505031 65.11494969 -2 64 C-2.10445557 62.07782922 -2.13855137 60.15180181 -2.14526367 58.22680664 C-2.15164352 56.99205093 -2.15802338 55.75729523 -2.16459656 54.48512268 C-2.16612512 53.12680093 -2.16723914 51.76847866 -2.16796875 50.41015625 C-2.1711797 49.02632105 -2.17454365 47.6424862 -2.17805481 46.25865173 C-2.18405224 43.35414849 -2.18589409 40.44967502 -2.18530273 37.54516602 C-2.18520109 33.81797854 -2.19885272 30.09098147 -2.21607494 26.36383915 C-2.2271778 23.50458392 -2.22922247 20.64537497 -2.22869301 17.78610039 C-2.22987574 16.41174094 -2.23431388 15.03738039 -2.24202538 13.66304207 C-2.25178998 11.74291548 -2.24769215 9.82273338 -2.24291992 7.90258789 C-2.24434494 6.80862198 -2.24576996 5.71465607 -2.24723816 4.58753967 C-2 2 -2 2 0 0 Z M2 3 C0.01199933 6.97600134 -0.24592807 8.4202567 -0.22705078 12.68652344 C-0.22689972 13.82740417 -0.22674866 14.96828491 -0.22659302 16.14373779 C-0.21627045 17.36989807 -0.20594788 18.59605835 -0.1953125 19.859375 C-0.1924826 21.11888977 -0.18965271 22.37840454 -0.18673706 23.67608643 C-0.17744121 27.01673902 -0.15948583 30.35711669 -0.1373291 33.69769287 C-0.11683208 37.10963528 -0.10761738 40.52160699 -0.09765625 43.93359375 C-0.07730033 50.62255036 -0.03815004 57.31102639 0 64 C13.53 64 27.06 64 41 64 C41 59.71 41 55.42 41 51 C32.42 51 23.84 51 15 51 C14.93941406 47.70257813 14.87882812 44.40515625 14.81640625 41.0078125 C14.75464737 37.82403193 14.69124703 34.640288 14.62768555 31.45654297 C14.58429922 29.23912803 14.54262692 27.02167888 14.50268555 24.80419922 C14.44507246 21.62196528 14.38135236 18.43990416 14.31640625 15.2578125 C14.29969376 14.26194122 14.28298126 13.26606995 14.26576233 12.24002075 C14.24581711 11.31921722 14.22587189 10.3984137 14.20532227 9.44970703 C14.18977798 8.6369632 14.1742337 7.82421936 14.15821838 6.98684692 C14.11897586 4.92561733 14.11897586 4.92561733 13 3 C9.37 3 5.74 3 2 3 Z " fill="#6F7071" transform="translate(173,227)"/>
<path d="M0 0 C0.90492188 0.02320313 1.80984375 0.04640625 2.7421875 0.0703125 C4.10730469 0.09738281 4.10730469 0.09738281 5.5 0.125 C6.19867188 0.14820313 6.89734375 0.17140625 7.6171875 0.1953125 C7.6171875 0.5253125 7.6171875 0.8553125 7.6171875 1.1953125 C4.6471875 1.1953125 1.6771875 1.1953125 -1.3828125 1.1953125 C-1.25003906 2.12988281 -1.11726562 3.06445312 -0.98046875 4.02734375 C1.12753077 19.4461958 2.26272162 34.67665991 0.6171875 50.1953125 C1.9371875 50.5253125 3.2571875 50.8553125 4.6171875 51.1953125 C4.6171875 50.2053125 4.6171875 49.2153125 4.6171875 48.1953125 C5.2771875 48.1953125 5.9371875 48.1953125 6.6171875 48.1953125 C6.60671387 47.35983887 6.59624023 46.52436523 6.58544922 45.66357422 C6.55086898 42.49138456 6.52605102 39.31929257 6.50732422 36.14697266 C6.49260699 34.12786377 6.46716383 32.10884198 6.44140625 30.08984375 C6.3977787 21.23345046 7.10891546 12.91676381 8.6171875 4.1953125 C8.9471875 4.1953125 9.2771875 4.1953125 9.6171875 4.1953125 C9.64183848 9.16153599 9.66002399 14.12772416 9.67211914 19.09399414 C9.6771594 20.78475566 9.68399155 22.47551279 9.69262695 24.16625977 C9.70470607 26.59131957 9.71041873 29.01632194 9.71484375 31.44140625 C9.72000504 32.20182724 9.72516632 32.96224823 9.73048401 33.74571228 C9.73067988 35.5626382 9.67916027 37.37944377 9.6171875 39.1953125 C9.1221875 39.6903125 9.1221875 39.6903125 8.6171875 40.1953125 C8.33324772 42.71020766 8.1690751 45.22520832 7.99609375 47.75 C7.6171875 50.1953125 7.6171875 50.1953125 5.6171875 53.1953125 C3.1171875 53.5703125 3.1171875 53.5703125 0.6171875 53.1953125 C-1.64229424 49.80608989 -1.82430711 47.98243199 -2.234375 43.97265625 C-2.42833862 42.09271973 -2.42833862 42.09271973 -2.6262207 40.17480469 C-2.75443585 38.82757044 -2.88161493 37.48023723 -3.0078125 36.1328125 C-3.07318207 35.45835083 -3.13855164 34.78388916 -3.2059021 34.08898926 C-3.99543793 25.88446436 -4.66563293 17.69361527 -4.6953125 9.4453125 C-4.70062988 8.72077881 -4.70594727 7.99624512 -4.71142578 7.24975586 C-4.61465597 0.37825049 -4.61465597 0.37825049 0 0 Z " fill="#FBF139" transform="translate(223.3828125,225.8046875)"/>
<path d="M0 0 C2.79347082 3.72462775 4.94624852 7.35533376 7.125 11.4375 C7.48464844 12.09298828 7.84429687 12.74847656 8.21484375 13.42382812 C10.07796654 16.90235513 11.62643755 20.00288175 12 24 C10.01532837 25.98467163 6.38707719 25.31944275 3.6875 25.375 C3.01009766 25.41238281 2.33269531 25.44976562 1.63476562 25.48828125 C-2.02074662 25.55260111 -3.62721567 25.35698838 -6.3046875 22.79296875 C-7.88035408 20.19711252 -9.42936459 17.64109096 -10.8125 14.9375 C-11.47185547 13.68259766 -11.47185547 13.68259766 -12.14453125 12.40234375 C-13.0914976 9.74305467 -12.97894309 8.60050528 -12 6 C-11.34 6 -10.68 6 -10 6 C-8.14223235 9.13498292 -7.79859524 11.37471432 -8 15 C-7.34 14.67 -6.68 14.34 -6 14 C-5.67 13.01 -5.34 12.02 -5 11 C-3.35 11 -1.7 11 0 11 C0 7.37 0 3.74 0 0 Z " fill="#0E2032" transform="translate(92,267)"/>
<path d="M0 0 C27.572651 -0.22778626 27.572651 -0.22778626 35 1 C36 2 36 2 36.09765625 4.72265625 C36.08605469 5.82480469 36.07445312 6.92695313 36.0625 8.0625 C36.05347656 9.16722656 36.04445313 10.27195313 36.03515625 11.41015625 C36.02355469 12.26480469 36.01195312 13.11945313 36 14 C32.10281829 15.86665742 29.45915815 16.13965761 25.1875 15.625 C23.72376953 15.45871094 23.72376953 15.45871094 22.23046875 15.2890625 C21.49441406 15.19367188 20.75835937 15.09828125 20 15 C20.00444122 15.59690643 20.00888245 16.19381287 20.01345825 16.80880737 C20.05760581 23.00516371 20.08783059 29.20147558 20.10986328 35.39794922 C20.11993892 37.71242079 20.13359975 40.02687959 20.15087891 42.34130859 C20.17505865 45.66246693 20.1864673 48.9834574 20.1953125 52.3046875 C20.20563507 53.34430634 20.21595764 54.38392517 20.22659302 55.45504761 C20.22674408 56.41589264 20.22689514 57.37673767 20.22705078 58.36669922 C20.231492 59.21497284 20.23593323 60.06324646 20.24050903 60.93722534 C20 63 20 63 18 65 C14.77734375 65.23046875 14.77734375 65.23046875 10.9375 65.1875 C9.66777344 65.18105469 8.39804687 65.17460937 7.08984375 65.16796875 C4 65 4 65 3 64 C2.90688111 62.49581261 2.88253972 60.98728644 2.88647461 59.48022461 C2.88658791 58.03884377 2.88658791 58.03884377 2.88670349 56.56834412 C2.89186478 55.523564 2.89702606 54.47878387 2.90234375 53.40234375 C2.90446617 51.80635094 2.90446617 51.80635094 2.90663147 50.17811584 C2.91224936 46.76454917 2.92480489 43.351047 2.9375 39.9375 C2.94251269 37.62955824 2.947076 35.32161545 2.95117188 33.01367188 C2.9622246 27.34242574 2.97898013 21.67121747 3 16 C3.33 16 3.66 16 4 16 C4 31.51 4 47.02 4 63 C8.62 63 13.24 63 18 63 C18.03758423 60.78132202 18.03758423 60.78132202 18.07592773 58.51782227 C18.169805 53.05174468 18.270073 47.58580006 18.37231445 42.11987305 C18.4157381 39.75011292 18.45740749 37.38032 18.49731445 35.01049805 C18.55483768 31.61236667 18.61858303 28.21440157 18.68359375 24.81640625 C18.70030624 23.74975235 18.71701874 22.68309845 18.73423767 21.5841217 C18.75418289 20.60318039 18.77412811 19.62223907 18.79467773 18.61157227 C18.81022202 17.74331314 18.8257663 16.87505402 18.84178162 15.98048401 C19 14 19 14 20 13 C22.35313555 12.92728259 24.70833668 12.91629132 27.0625 12.9375 C28.35285156 12.94652344 29.64320313 12.95554688 30.97265625 12.96484375 C31.97167969 12.97644531 32.97070312 12.98804688 34 13 C34 9.37 34 5.74 34 2 C33.34 2 32.68 2 32 2 C32 2.66 32 3.32 32 4 C28.87501937 4.02895976 25.7500731 4.04678483 22.625 4.0625 C21.29082031 4.07506836 21.29082031 4.07506836 19.9296875 4.08789062 C18.65351563 4.09272461 18.65351563 4.09272461 17.3515625 4.09765625 C16.17327881 4.10551147 16.17327881 4.10551147 14.97119141 4.11352539 C13 4 13 4 11 3 C9.12943209 2.7724985 7.25314042 2.59037189 5.375 2.4375 C4.37210937 2.35371094 3.36921875 2.26992187 2.3359375 2.18359375 C1.56507813 2.12300781 0.79421875 2.06242188 0 2 C0 1.34 0 0.68 0 0 Z " fill="#8B8E90" transform="translate(371,227)"/>
<path d="M0 0 C3.19893117 0.08228762 4.38272415 0.2175207 7.125 2 C8.96933156 4.92019164 9.48414846 6.92413726 9.625 10.375 C8.86686193 13.33863065 8.01672773 14.9542554 5.9375 17.1875 C2.65924007 18.87093078 0.25861098 18.76431546 -3.375 18.375 C-6.75374731 16.82260259 -7.31700135 15.50864906 -8.8125 12.0625 C-9.48217477 7.67240983 -8.7629936 6.04227589 -6.375 2.375 C-3.98213116 -0.01786884 -3.28052906 0.05449384 0 0 Z " fill="#B67965" transform="translate(226.375,281.625)"/>
<path d="M0 0 C1.87939453 -0.34057617 1.87939453 -0.34057617 4.1328125 -0.29296875 C4.93847656 -0.28330078 5.74414062 -0.27363281 6.57421875 -0.26367188 C7.83685547 -0.2259668 7.83685547 -0.2259668 9.125 -0.1875 C9.97449219 -0.17396484 10.82398438 -0.16042969 11.69921875 -0.14648438 C13.79974837 -0.11108219 15.89995293 -0.05727401 18 0 C19.14452013 3.18566894 20.28446723 6.3728978 21.41796875 9.5625 C22.5748639 12.81706218 23.74832953 16.0653226 24.92578125 19.3125 C25.57582196 21.12489202 26.22556355 22.93739136 26.875 24.75 C27.19734619 25.63139648 27.51969238 26.51279297 27.85180664 27.42089844 C28.14563232 28.2462207 28.43945801 29.07154297 28.7421875 29.921875 C29.0088623 30.66018555 29.27553711 31.39849609 29.55029297 32.15917969 C30 34 30 34 29 36 C28.67 34.35 28.34 32.7 28 31 C27.34 31 26.68 31 26 31 C26 29.68 26 28.36 26 27 C25.01 27 24.02 27 23 27 C22.67 26.34 22.34 25.68 22 25 C21.01 25 20.02 25 19 25 C19.04640625 23.90300781 19.0928125 22.80601562 19.140625 21.67578125 C19.1781579 20.2213815 19.21455643 18.76695217 19.25 17.3125 C19.28351563 16.59126953 19.31703125 15.87003906 19.3515625 15.12695312 C19.42314804 11.20764491 19.27668204 9.43033129 17.09375 6.03515625 C14.82073435 3.82575111 14.11897443 3.17327636 11 3 C5.49448236 3.16112908 5.49448236 3.16112908 1 6 C1.33 6.66 1.66 7.32 2 8 C1.01 8.66 0.02 9.32 -1 10 C-1 10.99 -1 11.98 -1 13 C-2.46725084 16.20127456 -4.04537137 19.06805706 -6 22 C-6.66 22 -7.32 22 -8 22 C-6.52970114 17.00515493 -5.03508907 12.01828651 -3.4375 7.0625 C-3.09525391 5.99708984 -3.09525391 5.99708984 -2.74609375 4.91015625 C-2 3 -2 3 0 0 Z " fill="#272D36" transform="translate(325,228)"/>
<path d="M0 0 C1.18510414 -0.00287018 1.18510414 -0.00287018 2.39414978 -0.00579834 C4.06265583 -0.00715833 5.73117253 -0.00347488 7.3996582 0.00488281 C9.95873655 0.01559942 12.51711517 0.00497418 15.07617188 -0.0078125 C16.69661614 -0.00649115 18.31705996 -0.00392927 19.9375 0 C20.70522232 -0.00404846 21.47294464 -0.00809692 22.26393127 -0.01226807 C27.67241268 0.03569393 27.67241268 0.03569393 29.90234375 2.265625 C30.1328125 4.76171875 30.1328125 4.76171875 30.08984375 7.703125 C30.08339844 8.67121094 30.07695312 9.63929688 30.0703125 10.63671875 C29.90234375 13.265625 29.90234375 13.265625 28.90234375 16.265625 C25.74900081 17.84229647 22.36472134 17.42859541 18.90234375 17.43359375 C17.71511719 17.43858635 17.71511719 17.43858635 16.50390625 17.44367981 C14.829433 17.4487454 13.15494965 17.45108825 11.48046875 17.45092773 C8.9125924 17.45311627 6.34514416 17.47128109 3.77734375 17.49023438 C2.15234522 17.49316791 0.52734465 17.49515297 -1.09765625 17.49609375 C-1.86851562 17.50327927 -2.639375 17.51046478 -3.43359375 17.51786804 C-8.86882905 17.4944522 -8.86882905 17.4944522 -11.09765625 15.265625 C-11.3984375 12.296875 -11.3984375 12.296875 -11.41015625 8.765625 C-11.42691406 7.6003125 -11.44367188 6.435 -11.4609375 5.234375 C-11.34105469 4.2546875 -11.22117187 3.275 -11.09765625 2.265625 C-7.33532562 -0.24259542 -4.35627258 -0.02303284 0 0 Z M-9.09765625 3.265625 C-9.19616796 5.09678383 -9.22738254 6.93182433 -9.22265625 8.765625 C-9.22523438 9.7659375 -9.2278125 10.76625 -9.23046875 11.796875 C-9.37636007 14.20962122 -9.37636007 14.20962122 -8.09765625 15.265625 C-5.60011484 15.37889866 -3.13125635 15.42979691 -0.6328125 15.43359375 C0.11569473 15.43692215 0.86420197 15.44025055 1.63539124 15.44367981 C3.22168359 15.44875193 4.80798665 15.45108805 6.39428711 15.45092773 C8.82618744 15.45311273 11.25763324 15.47126081 13.68945312 15.49023438 C15.22786303 15.49316849 16.76627509 15.49515317 18.3046875 15.49609375 C19.03493637 15.50327927 19.76518524 15.51046478 20.51756287 15.51786804 C24.66504368 15.63271934 24.66504368 15.63271934 27.90234375 13.265625 C28.14521864 10.82549551 28.14521864 10.82549551 28.02734375 8.140625 C28.00929688 7.23054688 27.99125 6.32046875 27.97265625 5.3828125 C27.94945312 4.68414062 27.92625 3.98546875 27.90234375 3.265625 C24.84671228 1.73780926 21.65610493 2.12352246 18.3046875 2.1328125 C17.55522354 2.13185577 16.80575958 2.13089905 16.03358459 2.12991333 C14.44906531 2.12923259 12.86454323 2.13107949 11.2800293 2.13525391 C8.8461282 2.14061117 6.41241102 2.13530153 3.97851562 2.12890625 C2.44140584 2.1295669 0.90429617 2.1308478 -0.6328125 2.1328125 C-1.3650856 2.13078827 -2.0973587 2.12876404 -2.8518219 2.12667847 C-6.26229868 1.83743074 -6.26229868 1.83743074 -9.09765625 3.265625 Z " fill="#E6CE6E" transform="translate(423.09765625,250.734375)"/>
<path d="M0 0 C1.26096748 0.03025772 1.26096748 0.03025772 2.54740906 0.06112671 C3.45062393 0.09332306 4.35383881 0.12551941 5.28442383 0.15869141 C6.67640739 0.19623032 6.67640739 0.19623032 8.09651184 0.23452759 C11.06186432 0.31673081 14.02655112 0.41331928 16.99145508 0.51025391 C19.00119347 0.56849313 21.01095921 0.62579641 23.02075195 0.68212891 C27.94886953 0.82231021 32.87643815 0.97539473 37.80395508 1.13525391 C37.83080603 3.61449192 37.85072055 6.0934423 37.86645508 8.57275391 C37.87483398 9.27980469 37.88321289 9.98685547 37.8918457 10.71533203 C37.90049095 12.5221895 37.85615519 14.32912993 37.80395508 16.13525391 C36.27311083 17.66609815 34.89192364 17.26241169 32.7590332 17.26464844 C31.90144409 17.2678006 31.04385498 17.27095276 30.16027832 17.27420044 C29.22800415 17.27217621 28.29572998 17.27015198 27.33520508 17.26806641 C25.90924011 17.2695015 25.90924011 17.2695015 24.45446777 17.27096558 C22.44026626 17.27164747 20.42606256 17.26979253 18.41186523 17.265625 C15.31725153 17.26027689 12.22278298 17.26556968 9.12817383 17.27197266 C7.17635059 17.27131188 5.22452744 17.27003072 3.27270508 17.26806641 C1.87429382 17.27110275 1.87429382 17.27110275 0.44763184 17.27420044 C-0.40995728 17.27104828 -1.26754639 17.26789612 -2.15112305 17.26464844 C-2.90977661 17.26385284 -3.66843018 17.26305725 -4.45007324 17.26223755 C-6.19604492 17.13525391 -6.19604492 17.13525391 -7.19604492 16.13525391 C-7.3478387 13.82623694 -7.41785614 11.51158322 -7.44604492 9.19775391 C-7.47182617 7.93060547 -7.49760742 6.66345703 -7.52416992 5.35791016 C-7.41588867 4.29443359 -7.30760742 3.23095703 -7.19604492 2.13525391 C-4.07328019 0.05341075 -3.51572614 -0.10557736 0 0 Z M-5.19604492 2.13525391 C-5.19604492 6.09525391 -5.19604492 10.05525391 -5.19604492 14.13525391 C-3.99613502 15.56351377 -3.99613502 15.56351377 -0.50244141 15.2487793 C1.142668 15.24862014 2.78778239 15.24292379 4.43286133 15.23291016 C5.29709213 15.23149521 6.16132294 15.23008026 7.05174255 15.22862244 C9.823348 15.22300629 12.59487388 15.2104511 15.36645508 15.19775391 C17.24080287 15.19274098 19.11515193 15.18817772 20.98950195 15.18408203 C25.59435051 15.17303162 30.19913929 15.1557562 34.80395508 15.13525391 C34.80395508 10.84525391 34.80395508 6.55525391 34.80395508 2.13525391 C21.60395508 2.13525391 8.40395508 2.13525391 -5.19604492 2.13525391 Z " fill="#388373" transform="translate(418.196044921875,226.86474609375)"/>
<path d="M0 0 C3.31639711 0.53490276 6.53004206 1.36756817 9.75 2.3125 C10.52859375 2.53550781 11.3071875 2.75851562 12.109375 2.98828125 C14 4 14 4 14.94140625 5.80859375 C15.02302544 8.86115155 13.91914905 10.26810487 12.1875 12.75 C11.64480469 13.54921875 11.10210937 14.3484375 10.54296875 15.171875 C10.03378906 15.77515625 9.52460938 16.3784375 9 17 C8.34 17 7.68 17 7 17 C7 17.66 7 18.32 7 19 C1.88126889 23.47714629 -3.33390155 24.83026138 -10 25 C-10.66 24.01 -11.32 23.02 -12 22 C-6.06 20.515 -6.06 20.515 0 19 C-0.33 18.34 -0.66 17.68 -1 17 C1.66666667 15.66666667 4.33333333 14.33333333 7 13 C7.66 13.33 8.32 13.66 9 14 C8.67 13.01 8.34 12.02 8 11 C8.33 10.01 8.66 9.02 9 8 C8.16739744 5.77519536 8.16739744 5.77519536 5.75 5.125 C1.97430346 4.95337743 0.84773275 6.65062048 -2 9 C-4.8125 9.25 -4.8125 9.25 -7 9 C-5.76302083 7.53515625 -4.52604167 6.0703125 -3.2890625 4.60546875 C-2.10798901 3.1344954 -1.04641471 1.56962206 0 0 Z " fill="#353C41" transform="translate(289,267)"/>
<path d="M0 0 C0.96218772 3.14897798 1.04930303 5.72762019 0.75 9 C0.68296875 9.845625 0.6159375 10.69125 0.546875 11.5625 C-0.0812794 14.3622739 -1.28053671 15.74406416 -3 18 C-3.25063732 21.66714849 -3.25063732 21.66714849 -3 25 C0.72614153 23.88145414 0.72614153 23.88145414 3 21 C4.64295195 19.63755204 6.30824337 18.30135125 8 17 C9.29550413 19.59100826 8.96400816 21.19424369 8.6875 24.0625 C8.56955078 25.41021484 8.56955078 25.41021484 8.44921875 26.78515625 C8.22685547 27.88150391 8.22685547 27.88150391 8 29 C5.14804778 30.42597611 2.67538825 30.1320252 -0.5 30.125 C-2.24796875 30.12886719 -2.24796875 30.12886719 -4.03125 30.1328125 C-7 30 -7 30 -9 29 C-8.29388919 23.15497162 -6.3887099 17.79476683 -4.5 12.25 C-4.01853516 10.81333984 -4.01853516 10.81333984 -3.52734375 9.34765625 C-1.15496483 2.30992965 -1.15496483 2.30992965 0 0 Z " fill="#0C1D2B" transform="translate(312,262)"/>
<path d="M0 0 C5.94 0 11.88 0 18 0 C21.53702001 8.14586426 24.58539001 16.35998899 27.46508789 24.75683594 C29.26288097 29.97864157 31.17593568 35.09560084 33.46875 40.125 C34.11806548 42.41670169 33.75569447 43.77269 33 46 C31 44 31 44 30.5625 42.0625 C29.89312558 39.60812713 28.80672441 38.72817117 27 37 C27 36.34 27 35.68 27 35 C26.34 35 25.68 35 25 35 C25 33.68 25 32.36 25 31 C25.66 31 26.32 31 27 31 C27 30.01 27 29.02 27 28 C26.01 28 25.02 28 24 28 C24.33 26.68 24.66 25.36 25 24 C23.68 23.67 22.36 23.34 21 23 C18.99032626 15.64383573 17.55953813 8.6097186 17 1 C8.585 1.495 8.585 1.495 0 2 C0 1.34 0 0.68 0 0 Z " fill="#40464A" transform="translate(127,228)"/>
<path d="M0 0 C13.2 0 26.4 0 40 0 C40 4.29 40 8.58 40 13 C34.46411467 13.02464775 28.928261 13.04283496 23.39233398 13.05493164 C21.5075627 13.05997244 19.62279535 13.06680498 17.73803711 13.07543945 C15.03498364 13.08751617 12.33198169 13.09323068 9.62890625 13.09765625 C8.78099014 13.10281754 7.93307404 13.10797882 7.0594635 13.11329651 C5.03928932 13.11349195 3.01922066 13.06206211 1 13 C0.67 12.67 0.34 12.34 0 12 C0 8.04 0 4.08 0 0 Z M2 2 C2 5.3 2 8.6 2 12 C6.94791294 12.0246826 11.8957902 12.04285166 16.84375 12.05493164 C18.52767562 12.05996653 20.21159686 12.06679481 21.89550781 12.07543945 C24.31316203 12.08754196 26.73075856 12.09323668 29.1484375 12.09765625 C29.9036972 12.10281754 30.65895691 12.10797882 31.43710327 12.11329651 C35.34648109 12.19320188 35.34648109 12.19320188 39 11 C39 9.02 39 7.04 39 5 C38.01 5 37.02 5 36 5 C36 4.01 36 3.02 36 2 C24.78 2 13.56 2 2 2 Z " fill="#198C78" transform="translate(413,229)"/>
<path d="M0 0 C0.99 0 1.98 0 3 0 C3 0.66 3 1.32 3 2 C3.66 2.33 4.32 2.66 5 3 C5 6.63 5 10.26 5 14 C17.21 13.67 29.42 13.34 42 13 C42 13.99 42 14.98 42 16 C14.05485809 17.19388403 14.05485809 17.19388403 1 17 C-0.53266582 13.93466836 -0.10276471 10.73245728 -0.0625 7.375 C-0.05798828 6.66859375 -0.05347656 5.9621875 -0.04882812 5.234375 C-0.03703875 3.48954725 -0.01910324 1.744763 0 0 Z " fill="#C36E51" transform="translate(411,275)"/>
<path d="M0 0 C3.63 0 7.26 0 11 0 C11 0.66 11 1.32 11 2 C10.34773438 2.02578125 9.69546875 2.0515625 9.0234375 2.078125 C3.30753939 2.44906824 -0.59064329 3.02082443 -5 7 C-7.71227752 11.47525791 -8.38670487 14.79424287 -8.3125 20 C-8.30863281 21.175625 -8.30476563 22.35125 -8.30078125 23.5625 C-7.99697903 27.03452533 -7.34204322 29.78952911 -6 33 C-4.08235826 34.3762794 -4.08235826 34.3762794 -2 35 C-1.34 35.33 -0.68 35.66 0 36 C2.37402501 36.07116382 4.75000677 36.08409085 7.125 36.0625 C8.40632813 36.05347656 9.68765625 36.04445313 11.0078125 36.03515625 C12.48894531 36.01775391 12.48894531 36.01775391 14 36 C14 36.66 14 37.32 14 38 C-0.31306714 39.84944126 -0.31306714 39.84944126 -6.44921875 36.203125 C-10.90273209 32.74800634 -10.90273209 32.74800634 -11.28051758 29.84277344 C-11.23564209 29.02325195 -11.1907666 28.20373047 -11.14453125 27.359375 C-11.09876953 26.45316406 -11.05300781 25.54695313 -11.00585938 24.61328125 C-10.94205078 23.66839844 -10.87824219 22.72351563 -10.8125 21.75 C-10.76802734 20.82058594 -10.72355469 19.89117187 -10.67773438 18.93359375 C-9.94086721 6.07025836 -9.94086721 6.07025836 -6.125 2 C-4 1 -4 1 -1.75 1.3125 C-1.1725 1.539375 -0.595 1.76625 0 2 C0 1.34 0 0.68 0 0 Z " fill="#78787D" transform="translate(268,240)"/>
<path d="M0 0 C0.99 0.33 1.98 0.66 3 1 C2.34 1 1.68 1 1 1 C1 21.13 1 41.26 1 62 C10.28467583 62.1374827 10.28467583 62.1374827 13 59 C13 58.175 13 57.35 13 56.5 C13 51.84313045 13.99693018 47.53172614 15 43 C15.33 43 15.66 43 16 43 C16.02888146 46.31248187 16.04675799 49.62493167 16.0625 52.9375 C16.07087891 53.88302734 16.07925781 54.82855469 16.08789062 55.80273438 C16.09272461 57.15141602 16.09272461 57.15141602 16.09765625 58.52734375 C16.10551147 59.77632446 16.10551147 59.77632446 16.11352539 61.05053711 C16 63 16 63 15 64 C12.66839945 64.09909302 10.33370058 64.12970504 8 64.125 C6.72125 64.12757813 5.4425 64.13015625 4.125 64.1328125 C1 64 1 64 0 63 C-0.0940067 61.03630847 -0.11743381 59.06920801 -0.11352539 57.10327148 C-0.11344986 55.84203964 -0.11337433 54.5808078 -0.11329651 53.28135681 C-0.1081891 51.89460206 -0.10297309 50.50784771 -0.09765625 49.12109375 C-0.09579201 47.71004791 -0.09436814 46.29900143 -0.09336853 44.88795471 C-0.08954379 41.16759465 -0.0797139 37.4472734 -0.06866455 33.72692871 C-0.05844948 29.93319219 -0.05387071 26.13944942 -0.04882812 22.34570312 C-0.03809158 14.89711769 -0.0210157 7.44856428 0 0 Z " fill="#8E8E91" transform="translate(53,228)"/>
<path d="M0 0 C0.33 0.99 0.66 1.98 1 3 C-2.96 3.66 -6.92 4.32 -11 5 C-11 6.32 -11 7.64 -11 9 C-7.5695421 11.71245508 -4.11454254 13.54780852 0 15 C-1 16.5625 -1 16.5625 -3 18 C-5.76614782 17.96726452 -8.26030547 17.49404328 -11 17 C-10.67 15.68 -10.34 14.36 -10 13 C-10.99 13 -11.98 13 -13 13 C-13 12.34 -13 11.68 -13 11 C-13.99 10.67 -14.98 10.34 -16 10 C-15.34 6.7 -14.68 3.4 -14 0 C-8.58818685 -1.80393772 -5.3867681 -2.44853095 0 0 Z " fill="#0E1E2B" transform="translate(491,237)"/>
<path d="M0 0 C0.66 0 1.32 0 2 0 C1.4739075 3.78786597 0.61896089 6.17152224 -2 9 C-2.66 9 -3.32 9 -4 9 C-4 9.66 -4 10.32 -4 11 C-11.57911379 15.15046708 -19.93600538 16.32376127 -28.43359375 14.46875 C-33.15224759 13.00461457 -37.21677171 11.20119317 -41 8 C-41 4 -41 4 -40 1 C-39.34 2.65 -38.68 4.3 -38 6 C-38.33 6.33 -38.66 6.66 -39 7 C-36.69 7.33 -34.38 7.66 -32 8 C-31.34 9.65 -30.68 11.3 -30 13 C-29.28714844 12.9278125 -28.57429688 12.855625 -27.83984375 12.78125 C-19.06811446 11.93123047 -19.06811446 11.93123047 -14.9375 12.0625 C-11.87496819 12.33623843 -11.87496819 12.33623843 -10 10 C-7.375 9.875 -7.375 9.875 -5 10 C-4.67 8.68 -4.34 7.36 -4 6 C-3.34 6 -2.68 6 -2 6 C-2 5.34 -2 4.68 -2 4 C-1.34 4 -0.68 4 0 4 C0 2.68 0 1.36 0 0 Z " fill="#494F55" transform="translate(506,278)"/>
<path d="M0 0 C1.01513672 -0.020625 2.03027344 -0.04125 3.07617188 -0.0625 C4.53700195 -0.07023437 4.53700195 -0.07023437 6.02734375 -0.078125 C6.9205835 -0.0874707 7.81382324 -0.09681641 8.73413086 -0.10644531 C11.54748419 0.32424525 12.28713622 1.08710042 14.0625 3.25 C14.825625 3.9925 15.58875 4.735 16.375 5.5 C18.0625 8.25 18.0625 8.25 17.3125 12.0625 C16.9 13.114375 16.4875 14.16625 16.0625 15.25 C13.0625 12.25 13.0625 12.25 11.0625 3.25 C3.4725 3.58 -4.1175 3.91 -11.9375 4.25 C-12.2675 3.26 -12.5975 2.27 -12.9375 1.25 C-9.05869395 -0.68940303 -4.26635864 0.02158815 0 0 Z " fill="#272D38" transform="translate(332.9375,275.75)"/>
<path d="M0 0 C8.25 0 16.5 0 25 0 C25 4.29 25 8.58 25 13 C11.47 13 -2.06 13 -16 13 C-16 10.69 -16 8.38 -16 6 C-15.7525 6.639375 -15.505 7.27875 -15.25 7.9375 C-14.22366578 10.11329019 -14.22366578 10.11329019 -12.33618164 10.61621094 C-7.43175725 11.42191218 -2.43132717 11.22580461 2.52709961 11.24023438 C4.55949138 11.24998556 6.59089013 11.28105844 8.62304688 11.3125 C10.54407227 11.32023437 10.54407227 11.32023437 12.50390625 11.328125 C13.67767822 11.3374707 14.8514502 11.34681641 16.06079102 11.35644531 C18.94497907 11.20957268 18.94497907 11.20957268 20.90600586 9.85449219 C22.50809503 7.49755382 22.50809503 7.49755382 22 2 C14.74 1.67 7.48 1.34 0 1 C0 0.67 0 0.34 0 0 Z " fill="#181F2A" transform="translate(189,278)"/>
<path d="M0 0 C0.33 0 0.66 0 1 0 C1.02465098 4.96622349 1.04283649 9.93241166 1.05493164 14.89868164 C1.0599719 16.58944316 1.06680405 18.28020029 1.07543945 19.97094727 C1.08751857 22.39600707 1.09323123 24.82100944 1.09765625 27.24609375 C1.10281754 28.00651474 1.10797882 28.76693573 1.11329651 29.55039978 C1.11349238 31.3673257 1.06197277 33.18413127 1 35 C0.505 35.495 0.505 35.495 0 36 C-0.28393978 38.51489516 -0.4481124 41.02989582 -0.62109375 43.5546875 C-1 46 -1 46 -3 49 C-5.625 49.1875 -5.625 49.1875 -8 49 C-8.33 47.68 -8.66 46.36 -9 45 C-7.35 45.66 -5.7 46.32 -4 47 C-4 46.01 -4 45.02 -4 44 C-3.34 44 -2.68 44 -2 44 C-2.01047363 43.16452637 -2.02094727 42.32905273 -2.03173828 41.46826172 C-2.06631852 38.29607206 -2.09113648 35.12398007 -2.10986328 31.95166016 C-2.12458051 29.93255127 -2.15002367 27.91352948 -2.17578125 25.89453125 C-2.2194088 17.03813796 -1.50827204 8.72145131 0 0 Z " fill="#F0E24D" transform="translate(232,230)"/>
<path d="M0 0 C0.82638376 2.89234315 1 4.88742431 1 8 C0.34 8.66 -0.32 9.32 -1 10 C-0.67 10.66 -0.34 11.32 0 12 C-0.48828125 14.34765625 -0.48828125 14.34765625 -1.3125 17.0625 C-1.70888672 18.41021484 -1.70888672 18.41021484 -2.11328125 19.78515625 C-3 22 -3 22 -5 23 C-5 23.33 -5 23.66 -5 24 C-1.37 24.33 2.26 24.66 6 25 C6 24.34 6 23.68 6 23 C6.66 23 7.32 23 8 23 C7.505 20.525 7.505 20.525 7 18 C7.99 18 8.98 18 10 18 C9.5020163 21.73487777 9.12508244 23.81237635 7 27 C3.8125 27.328125 3.8125 27.328125 0 27.25 C-1.258125 27.23453125 -2.51625 27.2190625 -3.8125 27.203125 C-7 27 -7 27 -9 26 C-7.38319942 20.13297367 -5.4810881 14.63624143 -2.91796875 9.1171875 C-1.62620619 6.13788832 -0.80252989 3.14324208 0 0 Z " fill="#50545C" transform="translate(114,265)"/>
<path d="M0 0 C0.87785156 0.00515625 1.75570312 0.0103125 2.66015625 0.015625 C3.53542969 0.01046875 4.41070312 0.0053125 5.3125 0 C7.72265625 0.265625 7.72265625 0.265625 10.72265625 2.265625 C11.07910156 4.73657227 11.07910156 4.73657227 11.05078125 7.83203125 C11.045625 8.95802734 11.04046875 10.08402344 11.03515625 11.24414062 C11.01453125 12.42685547 10.99390625 13.60957031 10.97265625 14.828125 C10.9675 15.98376953 10.96234375 17.13941406 10.95703125 18.33007812 C10.89902586 24.71429596 10.56023059 30.936535 9.72265625 37.265625 C9.39265625 37.265625 9.06265625 37.265625 8.72265625 37.265625 C8.6976001 36.40283936 8.67254395 35.54005371 8.64672852 34.65112305 C8.5515424 31.44738731 8.45231181 28.24380963 8.3503418 25.0402832 C8.30705407 23.65426517 8.26537461 22.26819594 8.2253418 20.88208008 C8.16749041 18.88870702 8.10335849 16.89551935 8.0390625 14.90234375 C8.00240479 13.70311279 7.96574707 12.50388184 7.92797852 11.26831055 C7.845326 8.21568151 7.845326 8.21568151 6.72265625 5.265625 C6.09617188 5.21664062 5.4696875 5.16765625 4.82421875 5.1171875 C4.00695312 5.04242188 3.1896875 4.96765625 2.34765625 4.890625 C1.12949219 4.78621094 1.12949219 4.78621094 -0.11328125 4.6796875 C-2.27734375 4.265625 -2.27734375 4.265625 -4.27734375 2.265625 C-2.27734375 0.265625 -2.27734375 0.265625 0 0 Z " fill="#E5D672" transform="translate(224.27734375,221.734375)"/>
<path d="M0 0 C0.33 0 0.66 0 1 0 C0.979375 1.11375 0.95875 2.2275 0.9375 3.375 C0.73619282 6.83215921 0.73619282 6.83215921 2 9 C1.2884375 9.556875 1.2884375 9.556875 0.5625 10.125 C-2.09654163 13.31584996 -2 16.97389654 -2 21 C-2.474375 21.928125 -2.94875 22.85625 -3.4375 23.8125 C-4.99030533 26.98022287 -5.45130481 29.55105884 -6 33 C-6.66 33.66 -7.32 34.32 -8 35 C-8.99 35 -9.98 35 -11 35 C-6.63636364 16.45454545 -6.63636364 16.45454545 -3 11 C-2.40678131 9.11966003 -1.86904181 7.22129792 -1.375 5.3125 C-1.11460938 4.31863281 -0.85421875 3.32476562 -0.5859375 2.30078125 C-0.39257812 1.54152344 -0.19921875 0.78226563 0 0 Z " fill="#3A3F4A" transform="translate(126,230)"/>
<path d="M0 0 C0.33 0 0.66 0 1 0 C1.40734375 1.23878906 1.8146875 2.47757813 2.234375 3.75390625 C3.47058468 7.46617119 4.7592801 11.15615265 6.078125 14.83984375 C6.43390625 15.83951172 6.7896875 16.83917969 7.15625 17.86914062 C7.89582866 19.94392291 8.64076962 22.01680032 9.390625 24.08789062 C9.74125 25.07853516 10.091875 26.06917969 10.453125 27.08984375 C10.93507324 28.43357056 10.93507324 28.43357056 11.42675781 29.80444336 C12 32 12 32 11 34 C10.67 32.35 10.34 30.7 10 29 C9.34 29 8.68 29 8 29 C8 27.68 8 26.36 8 25 C7.01 25 6.02 25 5 25 C4.67 24.34 4.34 23.68 4 23 C3.01 23 2.02 23 1 23 C1.01160156 21.85660156 1.02320313 20.71320313 1.03515625 19.53515625 C1.04453288 18.04427246 1.05363321 16.55338691 1.0625 15.0625 C1.07087891 14.30775391 1.07925781 13.55300781 1.08789062 12.77539062 C1.09652441 10.85005687 1.05224333 8.92464419 1 7 C0.67 6.67 0.34 6.34 0 6 C-0.04080783 4.00041636 -0.04254356 1.99954746 0 0 Z " fill="#3D4754" transform="translate(343,230)"/>
<path d="M0 0 C0.66 0.33 1.32 0.66 2 1 C2 1.99 2 2.98 2 4 C1.67 4.33 1.34 4.66 1 5 C0.86875102 7.65855489 0.81030223 10.27792053 0.8125 12.9375 C0.81185547 13.74002197 0.81121094 14.54254395 0.81054688 15.36938477 C0.86638459 21.88145819 1.47320199 28.24259343 2.28393555 34.69848633 C2.99759353 40.48690254 3.23131759 46.16565644 3 52 C2.67 52 2.34 52 2 52 C1.67 47.38 1.34 42.76 1 38 C0.34 38 -0.32 38 -1 38 C-1.63477227 29.04517696 -2.11406878 20.10380228 -2.1875 11.125 C-2.20039063 10.35881348 -2.21328125 9.59262695 -2.2265625 8.80322266 C-2.23342671 4.98929753 -2.16762425 3.25143637 0 0 Z " fill="#F1E57B" transform="translate(219,223)"/>
<path d="M0 0 C0.66 0.33 1.32 0.66 2 1 C2 16.18 2 31.36 2 47 C1.34 47 0.68 47 0 47 C-0.94987878 44.15036367 -1.09747457 42.55762509 -1.02172852 39.62036133 C-1.00163223 38.73967484 -0.98153595 37.85898834 -0.96083069 36.95161438 C-0.93379562 36.00465195 -0.90676056 35.05768951 -0.87890625 34.08203125 C-0.85529526 33.10965012 -0.83168427 32.13726898 -0.80735779 31.13542175 C-0.73074376 28.02763183 -0.64670945 24.9200925 -0.5625 21.8125 C-0.50927707 19.7063925 -0.45653668 17.60027274 -0.40429688 15.49414062 C-0.27513159 10.32926819 -0.1393108 5.16460834 0 0 Z " fill="#15202C" transform="translate(185,231)"/>
<path d="M0 0 C1.26096748 0.03025772 1.26096748 0.03025772 2.54740906 0.06112671 C3.45062393 0.09332306 4.35383881 0.12551941 5.28442383 0.15869141 C6.67640739 0.19623032 6.67640739 0.19623032 8.09651184 0.23452759 C11.06186432 0.31673081 14.02655112 0.41331928 16.99145508 0.51025391 C19.00119347 0.56849313 21.01095921 0.62579641 23.02075195 0.68212891 C27.94886953 0.82231021 32.87643815 0.97539473 37.80395508 1.13525391 C37.80395508 6.08525391 37.80395508 11.03525391 37.80395508 16.13525391 C37.47395508 16.13525391 37.14395508 16.13525391 36.80395508 16.13525391 C36.80395508 11.51525391 36.80395508 6.89525391 36.80395508 2.13525391 C22.94395508 2.13525391 9.08395508 2.13525391 -5.19604492 2.13525391 C-4.86604492 6.75525391 -4.53604492 11.37525391 -4.19604492 16.13525391 C-5.18604492 16.13525391 -6.17604492 16.13525391 -7.19604492 16.13525391 C-7.27680157 13.84415794 -7.33512223 11.55226124 -7.38354492 9.26025391 C-7.41834961 7.98408203 -7.4531543 6.70791016 -7.48901367 5.39306641 C-7.39233398 4.31798828 -7.2956543 3.24291016 -7.19604492 2.13525391 C-4.07328019 0.05341075 -3.51572614 -0.10557736 0 0 Z " fill="#5D9884" transform="translate(418.196044921875,226.86474609375)"/>
<path d="M0 0 C8 0 8 0 11 2 C10.67 3.32 10.34 4.64 10 6 C9.34 6 8.68 6 8 6 C7.67 6.66 7.34 7.32 7 8 C6.01 9.485 6.01 9.485 5 11 C2.375 11.1875 2.375 11.1875 0 11 C0 10.01 0 9.02 0 8 C-1.32 7.67 -2.64 7.34 -4 7 C-3.67 6.01 -3.34 5.02 -3 4 C-2.67 4.99 -2.34 5.98 -2 7 C-0.68 7 0.64 7 2 7 C2 6.34 2 5.68 2 5 C1.01 4.67 0.02 4.34 -1 4 C-0.67 2.68 -0.34 1.36 0 0 Z " fill="#A0513F" transform="translate(224,288)"/>
<path d="M0 0 C0.70125 0.268125 1.4025 0.53625 2.125 0.8125 C0.60628932 4.6743643 -1.7223292 6.46024638 -4.9375 9 C-8.5570293 12.13518941 -10.51879422 14.03238941 -11 18.875 C-10.95875 20.174375 -10.9175 21.47375 -10.875 22.8125 C-11.205 22.8125 -11.535 22.8125 -11.875 22.8125 C-12.5467528 9.05400754 -12.5467528 9.05400754 -7.515625 3.2421875 C-4.97241897 0.84318387 -3.54318714 -0.23107742 0 0 Z " fill="#2C3842" transform="translate(474.875,228.1875)"/>
<path d="M0 0 C2.475 0.99 2.475 0.99 5 2 C4.34 3.32 3.68 4.64 3 6 C2.67 5.01 2.34 4.02 2 3 C0.68 7.62 -0.64 12.24 -2 17 C1.3 17.33 4.6 17.66 8 18 C8 18.99 8 19.98 8 21 C4.04 21 0.08 21 -4 21 C-4.66 19.35 -5.32 17.7 -6 16 C-5.01 16 -4.02 16 -3 16 C-3 12.37 -3 8.74 -3 5 C-2.01 5 -1.02 5 0 5 C0 3.35 0 1.7 0 0 Z " fill="#4C535B" transform="translate(134,247)"/>
<path d="M0 0 C2.3125 2.5625 2.3125 2.5625 4 5 C3.34 5.33 2.68 5.66 2 6 C1.39800781 5.34515625 0.79601562 4.6903125 0.17578125 4.015625 C-4.43923728 1.08653575 -8.47019989 1.5634321 -13.8125 1.75 C-14.79154297 1.76804688 -15.77058594 1.78609375 -16.77929688 1.8046875 C-19.18720771 1.85167113 -21.59309335 1.91734306 -24 2 C-24 2.99 -24 3.98 -24 5 C-25.98 5.33 -27.96 5.66 -30 6 C-30 5.01 -30 4.02 -30 3 C-21.57722969 -2.24083486 -9.50066926 -2.81755833 0 0 Z " fill="#0F1B29" transform="translate(288,229)"/>
<path d="M0 0 C2.97 0.495 2.97 0.495 6 1 C6 1.33 6 1.66 6 2 C4.02 2 2.04 2 0 2 C0 5.63 0 9.26 0 13 C5.28 13 10.56 13 16 13 C16 13.99 16 14.98 16 16 C13.37472811 16.05382106 10.75055287 16.09358313 8.125 16.125 C7.37863281 16.14175781 6.63226563 16.15851563 5.86328125 16.17578125 C3.90805539 16.1933959 1.95257979 16.10320189 0 16 C-2 14 -2 14 -2.265625 12.01171875 C-2.23575234 7.56815987 -2.08605145 4.04172469 0 0 Z " fill="#5E5D5F" transform="translate(359,227)"/>
<path d="M0 0 C1.64574566 -0.02688151 3.29161413 -0.04634123 4.9375 -0.0625 C5.85402344 -0.07410156 6.77054687 -0.08570313 7.71484375 -0.09765625 C10 0 10 0 11 1 C11.07244053 3.01964199 11.08377188 5.04167124 11.0625 7.0625 C11.05347656 8.16722656 11.04445313 9.27195313 11.03515625 10.41015625 C11.02355469 11.26480469 11.01195312 12.11945313 11 13 C7.10281829 14.86665742 4.45915815 15.13965761 0.1875 14.625 C-1.27623047 14.45871094 -1.27623047 14.45871094 -2.76953125 14.2890625 C-3.50558594 14.19367188 -4.24164063 14.09828125 -5 14 C-5 17.3 -5 20.6 -5 24 C-5.33 24 -5.66 24 -6 24 C-6.02687279 22.18757948 -6.04633715 20.37504767 -6.0625 18.5625 C-6.07410156 17.55316406 -6.08570313 16.54382813 -6.09765625 15.50390625 C-6 13 -6 13 -5 12 C-2.64686445 11.92728259 -0.29166332 11.91629132 2.0625 11.9375 C3.35285156 11.94652344 4.64320313 11.95554688 5.97265625 11.96484375 C6.97167969 11.97644531 7.97070312 11.98804688 9 12 C9 8.37 9 4.74 9 1 C6.03 1 3.06 1 0 1 C0 0.67 0 0.34 0 0 Z " fill="#6D6B6A" transform="translate(396,228)"/>
<path d="M0 0 C2.954889 3.5458668 5.45934985 7.63781033 7 12 C6.67 12.99 6.34 13.98 6 15 C1.05 15 -3.9 15 -9 15 C-9.33 14.34 -9.66 13.68 -10 13 C-6.37 13 -2.74 13 1 13 C1 10.69 1 8.38 1 6 C0.01 6.495 0.01 6.495 -1 7 C-0.67 4.69 -0.34 2.38 0 0 Z " fill="#737272" transform="translate(97,277)"/>
<path d="M0 0 C0.33 0.66 0.66 1.32 1 2 C1.66 2.33 2.32 2.66 3 3 C3.39171753 4.65391846 3.72057545 6.32345271 4 8 C4.33 8.99 4.66 9.98 5 11 C8.3 11 11.6 11 15 11 C15.66 8.36 16.32 5.72 17 3 C20.00617269 6.00617269 19.59585316 8.82381598 20 13 C14.72 13 9.44 13 4 13 C0 3.375 0 3.375 0 0 Z " fill="#747373" transform="translate(147,279)"/>
<path d="M0 0 C8.25 0.33 16.5 0.66 25 1 C27 6 27 6 26 9 C25.34 9 24.68 9 24 9 C23.34 7.35 22.68 5.7 22 4 C14.41 4 6.82 4 -1 4 C-0.67 2.68 -0.34 1.36 0 0 Z " fill="#0D1925" transform="translate(125,275)"/>
<path d="M0 0 C2.97 0.33 5.94 0.66 9 1 C9 1.66 9 2.32 9 3 C9.66 3.33 10.32 3.66 11 4 C10.25 11.625 10.25 11.625 8 15 C4.37 14.67 0.74 14.34 -3 14 C-3 13.34 -3 12.68 -3 12 C0.3 11.67 3.6 11.34 7 11 C7.26352314 6.26352314 7.26352314 6.26352314 6 3 C2.99152582 1.77479736 2.99152582 1.77479736 0 1 C0 0.67 0 0.34 0 0 Z " fill="#5A5E63" transform="translate(485,266)"/>
<path d="M0 0 C2.02830837 1.85076414 3.39558648 3.73494562 5 6 C4.01 6.33 3.02 6.66 2 7 C2 6.34 2 5.68 2 5 C1.01 5 0.02 5 -1 5 C-1.66 3.68 -2.32 2.36 -3 1 C-3 1.66 -3 2.32 -3 3 C-6.3 3.66 -9.6 4.32 -13 5 C-12.34 6.98 -11.68 8.96 -11 11 C-13.0245738 9.06745228 -14.42105792 7.36841312 -16 5 C-16 4.01 -16 3.02 -16 2 C-3.78384477 -0.70397112 -3.78384477 -0.70397112 0 0 Z " fill="#626262" transform="translate(475,272)"/>
<path d="M0 0 C0.33 0 0.66 0 1 0 C1.06058594 0.99902344 1.12117187 1.99804688 1.18359375 3.02734375 C1.26738281 4.31769531 1.35117188 5.60804688 1.4375 6.9375 C1.51871094 8.22527344 1.59992188 9.51304687 1.68359375 10.83984375 C1.64919188 13.86023957 1.64919188 13.86023957 3 15 C3.24403215 17.90127111 3.42707066 20.78063577 3.5625 23.6875 C3.6049585 24.53932861 3.64741699 25.39115723 3.69116211 26.26879883 C4.0286407 33.5174588 4.10653899 40.74351111 4 48 C3.67 48 3.34 48 3 48 C-0.58165209 15.89849055 -0.58165209 15.89849055 0 0 Z " fill="#F9F053" transform="translate(219,228)"/>
<path d="M0 0 C1.94921875 0.60546875 1.94921875 0.60546875 4 2 C4.64453125 4.86328125 4.64453125 4.86328125 4.8125 8.3125 C4.88082031 9.44300781 4.94914063 10.57351563 5.01953125 11.73828125 C5.00199481 14.66686647 4.69647081 17.16626762 4 20 C3.01 19.67 2.02 19.34 1 19 C1.66 19 2.32 19 3 19 C2.566875 17.67935547 2.566875 17.67935547 2.125 16.33203125 C1.75375 15.17058594 1.3825 14.00914062 1 12.8125 C0.62875 11.66394531 0.2575 10.51539063 -0.125 9.33203125 C-0.90916596 6.34589928 -1.26834816 4.05805095 -1 1 C-0.67 0.67 -0.34 0.34 0 0 Z " fill="#2C343E" transform="translate(139,249)"/>
<path d="M0 0 C0 0.33 0 0.66 0 1 C-0.589021 0.97905273 -1.17804199 0.95810547 -1.78491211 0.93652344 C-4.50226161 0.8524131 -7.21933609 0.80104533 -9.9375 0.75 C-10.86369141 0.71648437 -11.78988281 0.68296875 -12.74414062 0.6484375 C-19.21211049 0.55765898 -24.45894153 1.49359304 -30 5 C-30.33 5.66 -30.66 6.32 -31 7 C-32.32 6.67 -33.64 6.34 -35 6 C-34.01 5.67 -33.02 5.34 -32 5 C-32 4.34 -32 3.68 -32 3 C-22.93345468 -3.59385114 -10.26959808 -3.8212458 0 0 Z " fill="#7B797B" transform="translate(288,228)"/>
<path d="M0 0 C2.90443686 3.53583618 2.90443686 3.53583618 3.4375 6.125 C3.83066164 8.19227902 3.83066164 8.19227902 5.9375 9.1875 C6.618125 9.455625 7.29875 9.72375 8 10 C8.66 10.33 9.32 10.66 10 11 C12.37402501 11.07116382 14.75000677 11.08409085 17.125 11.0625 C18.40632813 11.05347656 19.68765625 11.04445313 21.0078125 11.03515625 C22.48894531 11.01775391 22.48894531 11.01775391 24 11 C24 11.66 24 12.32 24 13 C9.68693286 14.84944126 9.68693286 14.84944126 3.55078125 11.203125 C1.83875746 9.87490503 0.35909138 8.69677973 -1 7 C-0.6875 3.3125 -0.6875 3.3125 0 0 Z " fill="#4C5153" transform="translate(258,265)"/>
<path d="M0 0 C2.98945595 4.48418393 2.62259378 8.65341189 3 14 C8.28 14.33 13.56 14.66 19 15 C15.31912647 17.45391569 12.55644412 17.22802759 8.3125 17.125 C7.61060547 17.11597656 6.90871094 17.10695313 6.18554688 17.09765625 C4.45688475 17.07413704 2.72839855 17.03826713 1 17 C-0.53266582 13.93466836 -0.10276471 10.73245728 -0.0625 7.375 C-0.05798828 6.66859375 -0.05347656 5.9621875 -0.04882812 5.234375 C-0.03703875 3.48954725 -0.01910324 1.744763 0 0 Z " fill="#CEA682" transform="translate(411,275)"/>
<path d="M0 0 C5.65394631 -0.34615998 9.03006806 0.56574762 14 3 C14 3.66 14 4.32 14 5 C17.96 5.33 21.92 5.66 26 6 C26 6.33 26 6.66 26 7 C16.31176866 7.32595919 7.82711745 7.2215549 0 1 C0 0.67 0 0.34 0 0 Z " fill="#4A4E53" transform="translate(253,286)"/>
<path d="M0 0 C1 2 1 2 0.0703125 5.4375 C-1.32692878 10.63194994 -1.22085728 15.65411328 -1.125 21 C-1.11146484 22.44826172 -1.11146484 22.44826172 -1.09765625 23.92578125 C-1.07430635 26.28412099 -1.04156047 28.64192286 -1 31 C-3 30 -3 30 -3.60546875 28.4140625 C-5.22031864 18.53309981 -4.7967593 8.90826728 0 0 Z " fill="#6A6C6A" transform="translate(246,243)"/>
<path d="M0 0 C4.08378283 0.74250597 8.01939223 1.82923301 12 3 C12 3.33 12 3.66 12 4 C11.40832031 4.02578125 10.81664062 4.0515625 10.20703125 4.078125 C4.74683534 4.47004771 2.22475156 5.36201949 -2 9 C-4.8125 9.25 -4.8125 9.25 -7 9 C-5.76302083 7.53515625 -4.52604167 6.0703125 -3.2890625 4.60546875 C-2.10798901 3.1344954 -1.04641471 1.56962206 0 0 Z " fill="#5C5D5E" transform="translate(289,267)"/>
<path d="M0 0 C1.76647063 2.64970595 2.97014997 5.01498099 4.1875 7.9375 C4.55230469 8.79214844 4.91710937 9.64679688 5.29296875 10.52734375 C6 13 6 13 5 17 C0.05 17 -4.9 17 -10 17 C-10 16.67 -10 16.34 -10 16 C-4.06 15.505 -4.06 15.505 2 15 C1.34 14.34 0.68 13.68 0 13 C0.66 13 1.32 13 2 13 C1.67257812 12.43796875 1.34515625 11.8759375 1.0078125 11.296875 C-0.11785494 8.73140036 -0.2068111 7.03157723 -0.125 4.25 C-0.10695313 3.45078125 -0.08890625 2.6515625 -0.0703125 1.828125 C-0.04710937 1.22484375 -0.02390625 0.6215625 0 0 Z " fill="#9C9091" transform="translate(359,275)"/>
<path d="M0 0 C0.96218772 3.14897798 1.04930303 5.72762019 0.75 9 C0.68296875 9.845625 0.6159375 10.69125 0.546875 11.5625 C-0.08415844 14.37510621 -1.2238154 15.76500557 -3 18 C-3.73260159 20.31347872 -4.411438 22.645752 -5 25 C-5.99 25 -6.98 25 -8 25 C-5.85406445 16.45115106 -3.0505873 8.25949525 0 0 Z " fill="#4F5257" transform="translate(312,262)"/>
<path d="M0 0 C5.78461538 4.30769231 5.78461538 4.30769231 6.875 7.8125 C6.936875 8.8953125 6.936875 8.8953125 7 10 C2.53273547 13.31442207 -1.62007164 13.66009167 -7 14 C-4 12 -4 12 -2 12 C-1.67 10.68 -1.34 9.36 -1 8 C-0.34 8 0.32 8 1 8 C1 8.99 1 9.98 1 11 C1.99 11 2.98 11 4 11 C4 10.01 4 9.02 4 8 C3.2884375 7.319375 3.2884375 7.319375 2.5625 6.625 C0.55416651 4.53633317 0.38130476 2.8216552 0 0 Z " fill="#5F6366" transform="translate(501,231)"/>
<path d="M0 0 C5.27272727 5.09090909 5.27272727 5.09090909 7 8 C6.8515625 9.98046875 6.8515625 9.98046875 6 12 C4.00390625 13.30078125 4.00390625 13.30078125 1.5625 14.3125 C0.35787109 14.83263672 0.35787109 14.83263672 -0.87109375 15.36328125 C-3 16 -3 16 -5 15 C-4.525625 14.566875 -4.05125 14.13375 -3.5625 13.6875 C-1.76313043 11.97690387 -1.76313043 11.97690387 -1 9 C-0.34 9 0.32 9 1 9 C1 9.66 1 10.32 1 11 C2.32 11 3.64 11 5 11 C5 10.34 5 9.68 5 9 C4.01 9 3.02 9 2 9 C1.34 6.03 0.68 3.06 0 0 Z " fill="#706F72" transform="translate(297,236)"/>
<path d="M0 0 C11.22 0 22.44 0 34 0 C34 0.66 34 1.32 34 2 C32.85144531 1.98839844 31.70289062 1.97679687 30.51953125 1.96484375 C16.67696785 1.51485156 16.67696785 1.51485156 3 3 C2.34 3.99 1.68 4.98 1 6 C0.67 4.02 0.34 2.04 0 0 Z " fill="#141F2B" transform="translate(54,229)"/>
<path d="M0 0 C1.30048841 2.60097682 1.56471422 5.13955062 2 8 C1.01 8.66 0.02 9.32 -1 10 C-1 10.99 -1 11.98 -1 13 C-2.46725084 16.20127456 -4.04537137 19.06805706 -6 22 C-6.66 22 -7.32 22 -8 22 C-6.52970114 17.00515493 -5.03508907 12.01828651 -3.4375 7.0625 C-3.09525391 5.99708984 -3.09525391 5.99708984 -2.74609375 4.91015625 C-2 3 -2 3 0 0 Z " fill="#54575C" transform="translate(325,228)"/>
<path d="M0 0 C0.33 0.66 0.66 1.32 1 2 C4.3 2 7.6 2 11 2 C11 2.33 11 2.66 11 3 C4.31184516 3.62422779 -2.28115045 4.12920865 -9 4 C-9 6.64 -9 9.28 -9 12 C-7.35 12 -5.7 12 -4 12 C-4 12.33 -4 12.66 -4 13 C-6.31 13 -8.62 13 -11 13 C-11 9.37 -11 5.74 -11 2 C-5.555 1.01 -5.555 1.01 0 0 Z " fill="#0D1B24" transform="translate(370,227)"/>
<path d="M0 0 C2.64 0.66 5.28 1.32 8 2 C8.33 1.34 8.66 0.68 9 0 C9.99 0 10.98 0 12 0 C12.625 1.8125 12.625 1.8125 13 4 C12.01 5.485 12.01 5.485 11 7 C10.67 6.01 10.34 5.02 10 4 C7.03 4 4.06 4 1 4 C1.061875 5.918125 1.061875 5.918125 1.125 7.875 C1.1953125 10.0546875 1.1953125 10.0546875 1 12 C0.34 12.66 -0.32 13.32 -1 14 C-1.02694851 12.04174127 -1.04637218 10.08337774 -1.0625 8.125 C-1.07410156 7.03445313 -1.08570312 5.94390625 -1.09765625 4.8203125 C-1 2 -1 2 0 0 Z " fill="#172129" transform="translate(67,267)"/>
<path d="M0 0 C1.32 0 2.64 0 4 0 C3.69106068 1.6256807 3.3777305 3.25052748 3.0625 4.875 C2.88847656 5.77992188 2.71445312 6.68484375 2.53515625 7.6171875 C2 10 2 10 1 12 C4.3 12.33 7.6 12.66 11 13 C11 13.66 11 14.32 11 15 C6.71 15 2.42 15 -2 15 C-1.34 13.02 -0.68 11.04 0 9 C0.23773983 6.48636986 0.23773983 6.48636986 0.125 4.125 C0.10695313 3.34382812 0.08890625 2.56265625 0.0703125 1.7578125 C0.04710937 1.17773438 0.02390625 0.59765625 0 0 Z " fill="#686D72" transform="translate(328,252)"/>
<path d="M0 0 C0.51949219 0.33773437 1.03898437 0.67546875 1.57421875 1.0234375 C5.28848007 3.39891701 8.80400915 5.55762815 13 7 C12 8.5625 12 8.5625 10 10 C7.23385218 9.96726452 4.73969453 9.49404328 2 9 C2.33 7.68 2.66 6.36 3 5 C2.01 5 1.02 5 0 5 C0 3.35 0 1.7 0 0 Z " fill="#3F444D" transform="translate(478,245)"/>
<path d="M0 0 C6.29341185 -0.01045417 6.29341185 -0.01045417 9.4765625 2.05859375 C11.25190165 4.86954741 11.67756053 7.1445721 11.9765625 10.43359375 C10.6565625 9.44359375 9.3365625 8.45359375 7.9765625 7.43359375 C7.3165625 8.09359375 6.6565625 8.75359375 5.9765625 9.43359375 C5.6465625 8.77359375 5.3165625 8.11359375 4.9765625 7.43359375 C3.9865625 6.77359375 2.9965625 6.11359375 1.9765625 5.43359375 C3.2965625 5.10359375 4.6165625 4.77359375 5.9765625 4.43359375 C5.9765625 3.44359375 5.9765625 2.45359375 5.9765625 1.43359375 C2.6765625 2.09359375 -0.6234375 2.75359375 -4.0234375 3.43359375 C-2.0234375 0.43359375 -2.0234375 0.43359375 0 0 Z " fill="#B17C6B" transform="translate(224.0234375,281.56640625)"/>
<path d="M0 0 C1.03864166 3.11592499 1.09036928 4.0262656 0 7 C-2.85195222 8.42597611 -5.32461175 8.1320252 -8.5 8.125 C-10.24796875 8.12886719 -10.24796875 8.12886719 -12.03125 8.1328125 C-15 8 -15 8 -17 7 C-16.67 5.68 -16.34 4.36 -16 3 C-16 3.99 -16 4.98 -16 6 C-15.24074219 5.91621094 -14.48148437 5.83242188 -13.69921875 5.74609375 C-12.70535156 5.64425781 -11.71148437 5.54242188 -10.6875 5.4375 C-9.70136719 5.33308594 -8.71523438 5.22867187 -7.69921875 5.12109375 C-5 5 -5 5 -2 6 C-2.33 5.01 -2.66 4.02 -3 3 C-2.01 2.01 -1.02 1.02 0 0 Z " fill="#808182" transform="translate(320,284)"/>
<path d="M0 0 C0.495 1.98 0.495 1.98 1 4 C-2.82745723 5.24006181 -6.63345592 5.12692202 -10.609375 5.09765625 C-11.33618469 5.0962413 -12.06299438 5.09482635 -12.81182861 5.09336853 C-15.12459494 5.08778792 -17.43726312 5.07523904 -19.75 5.0625 C-21.32161318 5.05748249 -22.89322789 5.05292002 -24.46484375 5.04882812 C-28.30993343 5.03782485 -32.1549501 5.02057361 -36 5 C-36 4.67 -36 4.34 -36 4 C-35.08186523 3.97494385 -34.16373047 3.9498877 -33.21777344 3.92407227 C-29.80342975 3.8287973 -26.38924797 3.72957222 -22.97509766 3.62768555 C-21.4989061 3.58443965 -20.02266785 3.54275744 -18.54638672 3.50268555 C-16.42140652 3.44473154 -14.29665907 3.38111054 -12.171875 3.31640625 C-10.8940918 3.27974854 -9.61630859 3.24309082 -8.29980469 3.20532227 C-4.56431588 2.98099596 -4.56431588 2.98099596 -1 2 C-0.67 1.34 -0.34 0.68 0 0 Z " fill="#DE704B" transform="translate(452,284)"/>
<path d="M0 0 C2 3 2 3 1.625 4.9375 C1.41875 5.618125 1.2125 6.29875 1 7 C1 8.32 1 9.64 1 11 C1.66 11 2.32 11 3 11 C3.33 14.3 3.66 17.6 4 21 C2.09610151 18.14415227 1.30537823 16.0688238 0.375 12.8125 C-0.01558594 11.46091797 -0.01558594 11.46091797 -0.4140625 10.08203125 C-0.60742188 9.39496094 -0.80078125 8.70789063 -1 8 C-1.99 8.495 -1.99 8.495 -3 9 C-3 6.36 -3 3.72 -3 1 C-2.01 0.67 -1.02 0.34 0 0 Z " fill="#4F5864" transform="translate(335,243)"/>
<path d="M0 0 C0.99 0 1.98 0 3 0 C2.5020163 3.73487777 2.12508244 5.81237635 0 9 C-3.2578125 9.29296875 -3.2578125 9.29296875 -7.125 9.1875 C-9.04699219 9.14689453 -9.04699219 9.14689453 -11.0078125 9.10546875 C-11.99523437 9.07066406 -12.98265625 9.03585937 -14 9 C-14 8.34 -14 7.68 -14 7 C-9.71 7 -5.42 7 -1 7 C-1 6.34 -1 5.68 -1 5 C-0.34 5 0.32 5 1 5 C0.67 3.35 0.34 1.7 0 0 Z " fill="#7D7D80" transform="translate(121,283)"/>
<path d="M0 0 C1.9375 0.5 1.9375 0.5 4 2 C4.28907054 4.02349375 4.570752 6.05117131 4.71875 8.08984375 C4.86350849 10.16490704 4.86350849 10.16490704 6.5625 12 C7.036875 12.33 7.51125 12.66 8 13 C6.35 13.33 4.7 13.66 3 14 C2.67 11.36 2.34 8.72 2 6 C1.34 6 0.68 6 0 6 C-0.38218767 4.34385343 -0.71395102 2.67542976 -1 1 C-0.67 0.67 -0.34 0.34 0 0 Z " fill="#101B2C" transform="translate(336,248)"/>
<path d="M0 0 C0.66 0 1.32 0 2 0 C1.4739075 3.78786597 0.61896089 6.17152224 -2 9 C-2.66 9 -3.32 9 -4 9 C-4 9.66 -4 10.32 -4 11 C-7.85756507 13.15305957 -10.55129785 14.39253254 -15 14 C-10.69230769 10.06153846 -10.69230769 10.06153846 -7.1875 9.75 C-6.465625 9.8325 -5.74375 9.915 -5 10 C-4.67 8.68 -4.34 7.36 -4 6 C-3.34 6 -2.68 6 -2 6 C-2 5.34 -2 4.68 -2 4 C-1.34 4 -0.68 4 0 4 C0 2.68 0 1.36 0 0 Z " fill="#55585A" transform="translate(506,278)"/>
<path d="M0 0 C1.32 0.33 2.64 0.66 4 1 C3.125 6.75 3.125 6.75 2 9 C-1.3 9 -4.6 9 -8 9 C-8 8.34 -8 7.68 -8 7 C-5.36 7 -2.72 7 0 7 C0 4.69 0 2.38 0 0 Z " fill="#0F1B2A" transform="translate(160,281)"/>
<path d="M0 0 C0.66 0.33 1.32 0.66 2 1 C-0.39509338 3.89932357 -2.31245243 4.50168276 -6 5 C-6 5.99 -6 6.98 -6 8 C-9.96 7.67 -13.92 7.34 -18 7 C-16 5 -16 5 -13.8359375 4.8046875 C-12.61777344 4.83949219 -12.61777344 4.83949219 -11.375 4.875 C-10.14910156 4.90207031 -10.14910156 4.90207031 -8.8984375 4.9296875 C-7.95871094 4.96449219 -7.95871094 4.96449219 -7 5 C-7 4.34 -7 3.68 -7 3 C-5.5459375 2.5359375 -5.5459375 2.5359375 -4.0625 2.0625 C-1.15934208 1.30476658 -1.15934208 1.30476658 0 0 Z " fill="#0C1E2C" transform="translate(289,273)"/>
<path d="M0 0 C0.33 0 0.66 0 1 0 C1.18175781 0.556875 1.36351562 1.11375 1.55078125 1.6875 C2.85040624 5.63302817 4.19587478 9.52191536 5.75 13.375 C7 17 7 17 6 20 C5.67 19.34 5.34 18.68 5 18 C4.34 18.33 3.68 18.66 3 19 C1.2100144 12.6753842 0.45759953 6.5508985 0 0 Z " fill="#5C5F64" transform="translate(343,230)"/>
<path d="M0 0 C0.66 0.99 1.32 1.98 2 3 C0.63016497 6.16115776 0.0109362 6.9927092 -3 9 C-9.27618412 9.56037358 -9.27618412 9.56037358 -11.9375 7.5 C-12.4634375 6.7575 -12.4634375 6.7575 -13 6 C-11.68 6 -10.36 6 -9 6 C-9 6.66 -9 7.32 -9 8 C-7.35 8 -5.7 8 -4 8 C-3.2861014 5.53155755 -3.2861014 5.53155755 -3 3 C-2.01 2.67 -1.02 2.34 0 2 C0 1.34 0 0.68 0 0 Z " fill="#C08A7B" transform="translate(233,291)"/>
<path d="M0 0 C0.66 0 1.32 0 2 0 C2 1.32 2 2.64 2 4 C1.34 4 0.68 4 0 4 C0 4.66 0 5.32 0 6 C-4.29 6 -8.58 6 -13 6 C-12.34 4.68 -11.68 3.36 -11 2 C-10.34 2.33 -9.68 2.66 -9 3 C-7.45976004 3.06950541 -5.91665012 3.08452357 -4.375 3.0625 C-3.55773437 3.05347656 -2.74046875 3.04445313 -1.8984375 3.03515625 C-1.27195312 3.02355469 -0.64546875 3.01195312 0 3 C0 2.01 0 1.02 0 0 Z " fill="#121A28" transform="translate(120,284)"/>
<path d="M0 0 C2.475 0.99 2.475 0.99 5 2 C4.34 3.32 3.68 4.64 3 6 C2.67 5.01 2.34 4.02 2 3 C0.68 7.62 -0.64 12.24 -2 17 C-2.33 17 -2.66 17 -3 17 C-3 13.04 -3 9.08 -3 5 C-2.01 5 -1.02 5 0 5 C0 3.35 0 1.7 0 0 Z " fill="#686C71" transform="translate(134,247)"/>
<path d="M0 0 C0.66 0 1.32 0 2 0 C3.85776765 3.13498292 4.20140476 5.37471432 4 9 C4.66 9.33 5.32 9.66 6 10 C5.34 11.32 4.68 12.64 4 14 C3.13116294 12.42466914 2.28040932 10.83935491 1.4375 9.25 C0.96183594 8.36828125 0.48617187 7.4865625 -0.00390625 6.578125 C-1.07998186 3.79298812 -1.06528748 2.73019786 0 0 Z " fill="#4C5156" transform="translate(80,273)"/>
<path d="M0 0 C0.33 0.99 0.66 1.98 1 3 C-0.1196986 4.00593243 -1.2459412 5.0045849 -2.375 6 C-3.31472656 6.8353125 -3.31472656 6.8353125 -4.2734375 7.6875 C-6 9 -6 9 -8 9 C-8 8.34 -8 7.68 -8 7 C-11.63 6.67 -15.26 6.34 -19 6 C-19 5.67 -19 5.34 -19 5 C-14.05 5 -9.1 5 -4 5 C-4 4.34 -4 3.68 -4 3 C-2 1.375 -2 1.375 0 0 Z " fill="#0C1824" transform="translate(88,253)"/>
<path d="M0 0 C2.475 0.99 2.475 0.99 5 2 C5 2.66 5 3.32 5 4 C5.61875 4.226875 6.2375 4.45375 6.875 4.6875 C9.61410209 6.37929835 10.05024472 7.99244161 11 11 C9.35 10.67 7.7 10.34 6 10 C6 8.68 6 7.36 6 6 C5.195625 5.7525 4.39125 5.505 3.5625 5.25 C1 4 1 4 0.1875 1.875 C0.125625 1.25625 0.06375 0.6375 0 0 Z " fill="#404448" transform="translate(288,229)"/>
<path d="M0 0 C5.94 0 11.88 0 18 0 C18.33 0.99 18.66 1.98 19 3 C15.77633495 4.07455502 14.91705406 3.93337394 11.75 3.125 C7.83640913 2.17702709 3.99293907 1.5097369 0 1 C0 0.67 0 0.34 0 0 Z " fill="#111B25" transform="translate(478,228)"/>
<path d="M0 0 C0.99 0.33 1.98 0.66 3 1 C3 1.99 3 2.98 3 4 C3.99 4.33 4.98 4.66 6 5 C7.45007937 7.68264684 8.11784055 9.27331661 7.625 12.3125 C7.41875 12.869375 7.2125 13.42625 7 14 C5 12 5 12 4.5625 10.0625 C4.16613925 7.91246426 4.16613925 7.91246426 2.5 6.5625 C0.53426922 4.51486377 0.37331439 2.76252651 0 0 Z " fill="#3B4148" transform="translate(153,260)"/>
<path d="M0 0 C0.99 0.33 1.98 0.66 3 1 C2.40300869 4.33135891 1.27987719 6.21275667 -0.9375 8.75 C-1.46214844 9.36359375 -1.98679687 9.9771875 -2.52734375 10.609375 C-4 12 -4 12 -6 12 C-6 10.68 -6 9.36 -6 8 C-5.01 8 -4.02 8 -3 8 C-3 7.34 -3 6.68 -3 6 C-2.01 6 -1.02 6 0 6 C-0.2784375 4.7934375 -0.2784375 4.7934375 -0.5625 3.5625 C-0.706875 2.716875 -0.85125 1.87125 -1 1 C-0.67 0.67 -0.34 0.34 0 0 Z " fill="#51565B" transform="translate(99,255)"/>
<path d="M0 0 C0.33 0 0.66 0 1 0 C0.979375 1.11375 0.95875 2.2275 0.9375 3.375 C0.73619282 6.83215921 0.73619282 6.83215921 2 9 C1.566875 9.37125 1.13375 9.7425 0.6875 10.125 C-1.46152985 12.51281095 -2.64757984 15.1019568 -4 18 C-4.625 16.1875 -4.625 16.1875 -5 14 C-4.34 13.01 -3.68 12.02 -3 11 C-2.40678131 9.11966003 -1.86904181 7.22129792 -1.375 5.3125 C-1.11460938 4.31863281 -0.85421875 3.32476562 -0.5859375 2.30078125 C-0.39257812 1.54152344 -0.19921875 0.78226563 0 0 Z " fill="#63656A" transform="translate(126,230)"/>
<path d="M0 0 C0.33 1.65 0.66 3.3 1 5 C-0.670625 4.7525 -0.670625 4.7525 -2.375 4.5 C-5.72032033 3.9544542 -5.72032033 3.9544542 -8 4 C-8.33 4.66 -8.66 5.32 -9 6 C-9.33 4.68 -9.66 3.36 -10 2 C-6.5980513 -0.09350689 -3.94727588 -0.17942163 0 0 Z " fill="#A0593F" transform="translate(230,283)"/>
<path d="M0 0 C1.65 0.33 3.3 0.66 5 1 C5.8125 3.625 5.8125 3.625 6 7 C4.57631048 9.3586498 2.94551992 11.00702837 1 13 C0.34 12.67 -0.32 12.34 -1 12 C-0.46375 11.319375 0.0725 10.63875 0.625 9.9375 C2.38809986 6.94027673 2.38809986 6.94027673 1.1875 3.1875 C0.795625 2.135625 0.40375 1.08375 0 0 Z " fill="#54555E" transform="translate(85,243)"/>
<path d="M0 0 C5.94 0.33 11.88 0.66 18 1 C18.33 1.99 18.66 2.98 19 4 C18.34 4 17.68 4 17 4 C17 3.34 17 2.68 17 2 C12.05 2 7.1 2 2 2 C1.67 3.32 1.34 4.64 1 6 C0.01 6 -0.98 6 -2 6 C-1.34 4.02 -0.68 2.04 0 0 Z " fill="#242D37" transform="translate(66,239)"/>
<path d="M0 0 C1.80030122 2.70045182 2.93377066 5.06677881 4.125 8.0625 C4.47820312 8.94035156 4.83140625 9.81820313 5.1953125 10.72265625 C6 13 6 13 6 15 C5.34 15 4.68 15 4 15 C3.67 14.01 3.34 13.02 3 12 C2.34 11.67 1.68 11.34 1 11 C0.67 11.99 0.34 12.98 0 14 C0 12.68 0 11.36 0 10 C0.66 10 1.32 10 2 10 C2 9.01 2 8.02 2 7 C1.01 7 0.02 7 -1 7 C-0.67 4.69 -0.34 2.38 0 0 Z " fill="#53535B" transform="translate(152,249)"/>
<path d="M0 0 C0.33 0 0.66 0 1 0 C1 6.27 1 12.54 1 19 C-1.64 19 -4.28 19 -7 19 C-7 18.67 -7 18.34 -7 18 C-5.02 17.34 -3.04 16.68 -1 16 C-1.01160156 15.09636719 -1.02320313 14.19273437 -1.03515625 13.26171875 C-1.04417969 12.08222656 -1.05320312 10.90273438 -1.0625 9.6875 C-1.07410156 8.51574219 -1.08570313 7.34398437 -1.09765625 6.13671875 C-1 3 -1 3 0 0 Z " fill="#0E1D2A" transform="translate(387,270)"/>
<path d="M0 0 C0.33 0 0.66 0 1 0 C1.13277344 0.94101563 1.26554688 1.88203125 1.40234375 2.8515625 C1.57894531 4.09679687 1.75554687 5.34203125 1.9375 6.625 C2.11152344 7.85476563 2.28554687 9.08453125 2.46484375 10.3515625 C2.93774301 13.57556184 3.45151002 16.78812176 4 20 C3.01 19.67 2.02 19.34 1 19 C-0.25433458 15.23699626 -0.10695422 11.72789091 -0.0625 7.8125 C-0.05798828 7.06291016 -0.05347656 6.31332031 -0.04882812 5.54101562 C-0.03706354 3.69397617 -0.01912865 1.84697787 0 0 Z " fill="#0C1923" transform="translate(244,253)"/>
<path d="M0 0 C0.66 0.33 1.32 0.66 2 1 C2 5.62 2 10.24 2 15 C1.01 15 0.02 15 -1 15 C-1.02685412 12.68756208 -1.04632841 10.3750373 -1.0625 8.0625 C-1.07410156 6.77472656 -1.08570313 5.48695313 -1.09765625 4.16015625 C-1 1 -1 1 0 0 Z " fill="#90B3A7" transform="translate(412,228)"/>
<path d="M0 0 C2.0625 0.4375 2.0625 0.4375 4 1 C3.01 1.495 3.01 1.495 2 2 C1.53101037 4.8159849 1.53101037 4.8159849 1.375 8.0625 C1.30023438 9.16722656 1.22546875 10.27195312 1.1484375 11.41015625 C1.09945313 12.26480469 1.05046875 13.11945313 1 14 C0.34 14 -0.32 14 -1 14 C-1.02685938 11.85423363 -1.04633088 9.70837355 -1.0625 7.5625 C-1.07410156 6.36753906 -1.08570313 5.17257812 -1.09765625 3.94140625 C-1 1 -1 1 0 0 Z " fill="#DFC066" transform="translate(413,252)"/>
<path d="M0 0 C2.1640625 0.2421875 2.1640625 0.2421875 4.625 0.875 C5.44226563 1.07867187 6.25953125 1.28234375 7.1015625 1.4921875 C8.04128906 1.74355469 8.04128906 1.74355469 9 2 C9 2.66 9 3.32 9 4 C7.54207116 4.05399736 6.08357288 4.09279177 4.625 4.125 C3.81289062 4.14820313 3.00078125 4.17140625 2.1640625 4.1953125 C0 4 0 4 -2 2 C-1.34 1.34 -0.68 0.68 0 0 Z " fill="#D0BF62" transform="translate(222,222)"/>
<path d="M0 0 C2.97 0.33 5.94 0.66 9 1 C9 1.66 9 2.32 9 3 C9.66 3.33 10.32 3.66 11 4 C10.67 5.98 10.34 7.96 10 10 C9.67 10 9.34 10 9 10 C9 8.35 9 6.7 9 5 C8.01 5 7.02 5 6 5 C6 4.34 6 3.68 6 3 C4.02 2.34 2.04 1.68 0 1 C0 0.67 0 0.34 0 0 Z " fill="#41474E" transform="translate(485,266)"/>
<path d="M0 0 C3.96 0 7.92 0 12 0 C9.22255605 2.77744395 6.83641466 2.53698444 3 3 C1.66082739 3.30903983 0.32346746 3.62942911 -1 4 C-0.67 2.68 -0.34 1.36 0 0 Z " fill="#18252D" transform="translate(128,229)"/>
<path d="M0 0 C2.45605371 2.55274874 2.98802939 3.85890643 3.29296875 7.453125 C3.25816406 8.70609375 3.22335938 9.9590625 3.1875 11.25 C3.16042969 12.51328125 3.13335937 13.7765625 3.10546875 15.078125 C3.07066406 16.04234375 3.03585938 17.0065625 3 18 C2.67 18 2.34 18 2 18 C1.67 15.03 1.34 12.06 1 9 C0.67 9 0.34 9 0 9 C0 6.03 0 3.06 0 0 Z " fill="#535556" transform="translate(100,238)"/>
<path d="M0 0 C-0.33 0.99 -0.66 1.98 -1 3 C-2.31554985 2.5504955 -3.62738358 2.09010284 -4.9375 1.625 C-5.66839844 1.36976563 -6.39929688 1.11453125 -7.15234375 0.8515625 C-9 0 -9 0 -10 -2 C-5.93943859 -3.71792983 -3.64270496 -2.06971873 0 0 Z " fill="#101D29" transform="translate(493,265)"/>
<path d="M0 0 C-0.75 5.75 -0.75 5.75 -3 8 C-3.99 8 -4.98 8 -6 8 C-5.6875 5.125 -5.6875 5.125 -5 2 C-2 0 -2 0 0 0 Z " fill="#283039" transform="translate(121,257)"/>
<path d="M0 0 C0.66 0.33 1.32 0.66 2 1 C2 5.29 2 9.58 2 14 C1.34 14 0.68 14 0 14 C-1.10370043 10.6888987 -0.92673641 8.75251051 -0.5625 5.3125 C-0.46066406 4.31863281 -0.35882813 3.32476562 -0.25390625 2.30078125 C-0.17011719 1.54152344 -0.08632812 0.78226563 0 0 Z " fill="#14202A" transform="translate(66,244)"/>
<path d="M0 0 C2.672336 3.56311466 3.77263971 5.84585747 5 10 C3.35 10 1.7 10 0 10 C0 6.7 0 3.4 0 0 Z " fill="#52565C" transform="translate(92,267)"/>
<path d="M0 0 C0.66 0 1.32 0 2 0 C2 0.66 2 1.32 2 2 C2.99 2 3.98 2 5 2 C5 2.66 5 3.32 5 4 C0.545 5.485 0.545 5.485 -4 7 C-3.67 6.01 -3.34 5.02 -3 4 C-2.34 3.67 -1.68 3.34 -1 3 C-0.67 2.01 -0.34 1.02 0 0 Z " fill="#575C60" transform="translate(296,245)"/>
<path d="M0 0 C2.05078125 0.03255208 4.1015625 0.06510417 6.15234375 0.09765625 C5.82234375 1.08765625 5.49234375 2.07765625 5.15234375 3.09765625 C3.0859375 4.046875 3.0859375 4.046875 0.58984375 4.78515625 C-0.23644531 5.03652344 -1.06273437 5.28789062 -1.9140625 5.546875 C-2.55214844 5.72863281 -3.19023437 5.91039062 -3.84765625 6.09765625 C-2.77957394 0.14691194 -2.77957394 0.14691194 0 0 Z " fill="#4A4F54" transform="translate(481.84765625,236.90234375)"/>
<path d="M0 0 C0.66 0 1.32 0 2 0 C2 1.32 2 2.64 2 4 C1.34 4 0.68 4 0 4 C0 4.66 0 5.32 0 6 C-0.99 6.495 -0.99 6.495 -2 7 C-2.33 7.99 -2.66 8.98 -3 10 C-3.99 9.67 -4.98 9.34 -6 9 C-4.97407374 5.92222122 -4.24530756 5.15549526 -2 3 C-1.34 2.01 -0.68 1.02 0 0 Z " fill="#0B1A27" transform="translate(504,278)"/>
<path d="M0 0 C3.47294006 2.31529337 3.91050088 3.06104164 5 7 C5.15647811 10.00841781 5.11800991 12.99074736 5 16 C4.67 16 4.34 16 4 16 C3.67 13.69 3.34 11.38 3 9 C2.34 9 1.68 9 1 9 C1.020625 8.071875 1.04125 7.14375 1.0625 6.1875 C1.15769604 2.97713989 1.15769604 2.97713989 0 0 Z " fill="#6A6D6D" transform="translate(504,262)"/>
<path d="M0 0 C0.66 0 1.32 0 2 0 C2.33 1.65 2.66 3.3 3 5 C-0.64418341 7.42945561 -1.92923364 7.0828781 -6.1875 6.625 C-7.27417969 6.51414062 -8.36085938 6.40328125 -9.48046875 6.2890625 C-10.31191406 6.19367188 -11.14335937 6.09828125 -12 6 C-12 5.67 -12 5.34 -12 5 C-8.04 5 -4.08 5 0 5 C0 3.35 0 1.7 0 0 Z " fill="#202C38" transform="translate(339,262)"/>
<path d="M0 0 C3.45925163 1.2491742 6.14693203 2.67527795 9 5 C8.67 5.66 8.34 6.32 8 7 C5.69 6.34 3.38 5.68 1 5 C0.67 3.35 0.34 1.7 0 0 Z " fill="#47494F" transform="translate(495,255)"/>
<path d="M0 0 C0.33 0 0.66 0 1 0 C1 3.3 1 6.6 1 10 C0.01 10.495 0.01 10.495 -1 11 C-2.38550197 8.22899606 -2.1877467 6.0665294 -2 3 C-1.34 2.01 -0.68 1.02 0 0 Z " fill="#131F29" transform="translate(101,246)"/>
<path d="M0 0 C0.99 0.99 1.98 1.98 3 3 C2.67 3.66 2.34 4.32 2 5 C3.32 4.67 4.64 4.34 6 4 C5.34 5.98 4.68 7.96 4 10 C1.2027092 7.93243723 0.97307727 6.85559629 0.3125 3.3125 C0.209375 2.219375 0.10625 1.12625 0 0 Z " fill="#41474E" transform="translate(345,281)"/>
<path d="M0 0 C0.33 1.32 0.66 2.64 1 4 C-0.32 3.34 -1.64 2.68 -3 2 C-3 1.34 -3 0.68 -3 0 C-7.29 0 -11.58 0 -16 0 C-16 -0.33 -16 -0.66 -16 -1 C-10.15659442 -2.24327778 -5.73303505 -1.57300962 0 0 Z " fill="#121C29" transform="translate(87,240)"/>
<path d="M0 0 C1.30048841 2.60097682 1.56471422 5.13955062 2 8 C1.01 8.66 0.02 9.32 -1 10 C-1.66 10.66 -2.32 11.32 -3 12 C-2.88541307 10.56163249 -2.75790884 9.12429034 -2.625 7.6875 C-2.55539062 6.88699219 -2.48578125 6.08648437 -2.4140625 5.26171875 C-2 3 -2 3 0 0 Z " fill="#4E5055" transform="translate(325,228)"/>
<path d="M0 0 C1.90389849 2.85584773 2.69462177 4.9311762 3.625 8.1875 C4.01558594 9.53908203 4.01558594 9.53908203 4.4140625 10.91796875 C4.60742188 11.60503906 4.80078125 12.29210937 5 13 C2.5 11.5625 2.5 11.5625 0 9 C-0.4451258 5.95743422 -0.29359745 3.0534135 0 0 Z " fill="#565A5E" transform="translate(359,275)"/>
<path d="M0 0 C2.03833424 1.2739589 4.03852126 2.61061923 6 4 C6 4.66 6 5.32 6 6 C7.32 6.66 8.64 7.32 10 8 C9.34 8 8.68 8 8 8 C7.67 8.66 7.34 9.32 7 10 C5.82739389 8.71372289 4.6620717 7.42080217 3.5 6.125 C2.8503125 5.40570313 2.200625 4.68640625 1.53125 3.9453125 C0 2 0 2 0 0 Z " fill="#666A6E" transform="translate(245,276)"/>
<path d="M0 0 C0.66 0.33 1.32 0.66 2 1 C2 1.99 2 2.98 2 4 C2.99 4 3.98 4 5 4 C5.33 5.32 5.66 6.64 6 8 C4.68 7.67 3.36 7.34 2 7 C2 6.34 2 5.68 2 5 C1.34 5 0.68 5 0 5 C-0.33 4.01 -0.66 3.02 -1 2 C-0.67 1.34 -0.34 0.68 0 0 Z " fill="#0D1C2A" transform="translate(472,273)"/>
<path d="M0 0 C1.32 0.33 2.64 0.66 4 1 C4.12375 1.61875 4.2475 2.2375 4.375 2.875 C4.87197356 5.19120832 4.87197356 5.19120832 7 7 C3.46013806 7 2.50484597 6.41847197 0 4 C0 2.68 0 1.36 0 0 Z " fill="#18242C" transform="translate(245,272)"/>
<path d="M0 0 C0.99 0 1.98 0 3 0 C3.625 1.8125 3.625 1.8125 4 4 C3.01 5.485 3.01 5.485 2 7 C1.67 6.01 1.34 5.02 1 4 C-1.31 4 -3.62 4 -6 4 C-6 3.67 -6 3.34 -6 3 C-4.02 2.34 -2.04 1.68 0 1 C0 0.67 0 0.34 0 0 Z " fill="#6C7176" transform="translate(76,267)"/>
<path d="M0 0 C1.32 0 2.64 0 4 0 C3.71788123 1.6266848 3.42397625 3.25132896 3.125 4.875 C2.96257812 5.77992188 2.80015625 6.68484375 2.6328125 7.6171875 C2 10 2 10 0 12 C0 8.04 0 4.08 0 0 Z " fill="#5B5C5F" transform="translate(328,252)"/>
<path d="M0 0 C1.98 1.65 3.96 3.3 6 5 C5.67 6.32 5.34 7.64 5 9 C1.7457985 6.16569547 0.4793247 4.31392226 0 0 Z " fill="#484B4F" transform="translate(501,231)"/>
<path d="M0 0 C0.66 0 1.32 0 2 0 C2.99 2.64 3.98 5.28 5 8 C1.34683329 6.75023244 0.21934164 6.32901247 -2 3 C-1.01 3 -0.02 3 1 3 C0.34 2.34 -0.32 1.68 -1 1 C-0.67 0.67 -0.34 0.34 0 0 Z " fill="#50545D" transform="translate(470,254)"/>
<path d="M0 0 C0.33 0.66 0.66 1.32 1 2 C4.3 2 7.6 2 11 2 C11 2.33 11 2.66 11 3 C5.06 3.495 5.06 3.495 -1 4 C-1 3.34 -1 2.68 -1 2 C-2.32 1.67 -3.64 1.34 -5 1 C-3.35 0.67 -1.7 0.34 0 0 Z " fill="#16242A" transform="translate(370,227)"/>
<path d="M0 0 C-4.30769231 3.93846154 -4.30769231 3.93846154 -7.8125 4.25 C-8.534375 4.1675 -9.25625 4.085 -10 4 C-4.4 -2.2 -4.4 -2.2 0 0 Z " fill="#3D4249" transform="translate(292,272)"/>
<path d="M0 0 C2.9375 0.75 2.9375 0.75 6 2 C6.875 4.125 6.875 4.125 7 6 C4.0625 5.25 4.0625 5.25 1 4 C0.125 1.875 0.125 1.875 0 0 Z " fill="#151E2A" transform="translate(473,257)"/>
<path d="M0 0 C0.99 0 1.98 0 3 0 C3 1.98 3 3.96 3 6 C2.01 6.495 2.01 6.495 1 7 C0.34 6.34 -0.32 5.68 -1 5 C-0.625 2.375 -0.625 2.375 0 0 Z " fill="#121F29" transform="translate(329,246)"/>
<path d="M0 0 C1.65 0 3.3 0 5 0 C5.66 2.64 6.32 5.28 7 8 C6.34 8 5.68 8 5 8 C3.7109375 6.25 3.7109375 6.25 2.375 4 C1.92898438 3.2575 1.48296875 2.515 1.0234375 1.75 C0.68570312 1.1725 0.34796875 0.595 0 0 Z " fill="#5B575D" transform="translate(283,244)"/>
<path d="M0 0 C2.32472205 2.85306797 3.7508258 5.54074837 5 9 C4.01 8.67 3.02 8.34 2 8 C1.67 7.34 1.34 6.68 1 6 C0.01 6.495 0.01 6.495 -1 7 C-0.67 4.69 -0.34 2.38 0 0 Z " fill="#595E62" transform="translate(97,277)"/>
<path d="M0 0 C2.62386487 3.06117568 3 3.73173127 3 8 C1.68 7.67 0.36 7.34 -1 7 C-0.67 4.69 -0.34 2.38 0 0 Z " fill="#505459" transform="translate(161,274)"/>
<path d="M0 0 C0.66 0.33 1.32 0.66 2 1 C2 3.31 2 5.62 2 8 C1.34 8 0.68 8 0 8 C-0.38063221 5.6739143 -0.71269945 3.33944736 -1 1 C-0.67 0.67 -0.34 0.34 0 0 Z " fill="#141C25" transform="translate(506,270)"/>
<path d="M0 0 C0.66 0 1.32 0 2 0 C1.6875 2.875 1.6875 2.875 1 6 C0.01 6.66 -0.98 7.32 -2 8 C-1.125 1.125 -1.125 1.125 0 0 Z " fill="#0D1929" transform="translate(125,241)"/>
<path d="M0 0 C0.66 0.33 1.32 0.66 2 1 C2 5 2 5 1 7 C-0.32 6.67 -1.64 6.34 -3 6 C-2.01 4.02 -1.02 2.04 0 0 Z " fill="#0D192E" transform="translate(324,236)"/>
<path d="M0 0 C2 1.375 2 1.375 4 3 C4 3.66 4 4.32 4 5 C4.66 5 5.32 5 6 5 C6 5.66 6 6.32 6 7 C3.03 6.505 3.03 6.505 0 6 C0 4.02 0 2.04 0 0 Z " fill="#555B5E" transform="translate(94,231)"/>
<path d="M0 0 C2.31 0 4.62 0 7 0 C7.33 1.65 7.66 3.3 8 5 C4.62496331 3.8141763 2.35277269 2.72426311 0 0 Z " fill="#636366" transform="translate(253,286)"/>
<path d="M0 0 C2.01822917 0.06510417 4.03645833 0.13020833 6.0546875 0.1953125 C5.7246875 1.1853125 5.3946875 2.1753125 5.0546875 3.1953125 C2.0846875 2.8653125 -0.8853125 2.5353125 -3.9453125 2.1953125 C-1.9453125 0.1953125 -1.9453125 0.1953125 0 0 Z " fill="#212730" transform="translate(274.9453125,277.8046875)"/>
<path d="M0 0 C3.16115776 1.36983503 3.9927092 1.9890638 6 5 C5.01 5.33 4.02 5.66 3 6 C3 5.34 3 4.68 3 4 C2.01 4 1.02 4 0 4 C-0.33 3.01 -0.66 2.02 -1 1 C-0.67 0.67 -0.34 0.34 0 0 Z " fill="#4E5056" transform="translate(474,273)"/>
<path d="M0 0 C0.99 1.32 1.98 2.64 3 4 C1 5 1 5 -0.9453125 4.44140625 C-1.66460937 4.15136719 -2.38390625 3.86132812 -3.125 3.5625 C-3.84945313 3.27503906 -4.57390625 2.98757813 -5.3203125 2.69140625 C-6.15175781 2.34916016 -6.15175781 2.34916016 -7 2 C-6.401875 1.855625 -5.80375 1.71125 -5.1875 1.5625 C-3.43849596 1.1127561 -1.71322977 0.57107659 0 0 Z " fill="#626469" transform="translate(482,261)"/>
<path d="M0 0 C2.00720923 0.28674418 4.0085944 0.61866701 6 1 C1.25 4.875 1.25 4.875 -1 6 C-1.042721 4.33388095 -1.04063832 2.66617115 -1 1 C-0.67 0.67 -0.34 0.34 0 0 Z " fill="#52555D" transform="translate(263,241)"/>
<path d="M0 0 C1.5 1.1875 1.5 1.1875 3 3 C3.1875 5.6875 3.1875 5.6875 3 8 C2.34 8 1.68 8 1 8 C-0.35439668 5.29120665 -0.06501451 2.99066732 0 0 Z " fill="#161E2B" transform="translate(347,247)"/>
<path d="M0 0 C0 1.65 0 3.3 0 5 C-0.99 4.67 -1.98 4.34 -3 4 C-3.33 5.32 -3.66 6.64 -4 8 C-4.66 8 -5.32 8 -6 8 C-3.18918919 0 -3.18918919 0 0 0 Z " fill="#828586" transform="translate(253,235)"/>
<path d="M0 0 C0.33 1.32 0.66 2.64 1 4 C0.360625 4.268125 -0.27875 4.53625 -0.9375 4.8125 C-3.33131686 5.88667752 -3.33131686 5.88667752 -4 9 C-3.46930939 5.17902761 -2.50298434 2.93828597 0 0 Z " fill="#727774" transform="translate(468,231)"/>
<path d="M0 0 C0.66 0.33 1.32 0.66 2 1 C1.34 2.65 0.68 4.3 0 6 C-0.99 5.67 -1.98 5.34 -3 5 C-3 4.01 -3 3.02 -3 2 C-2.01 1.34 -1.02 0.68 0 0 Z " fill="#4A5257" transform="translate(472,228)"/>
<path d="M0 0 C0.66 0 1.32 0 2 0 C2.33 1.65 2.66 3.3 3 5 C1.35 5 -0.3 5 -2 5 C-2 2 -2 2 0 0 Z " fill="#151820" transform="translate(306,285)"/>
<path d="M0 0 C0.99 0.33 1.98 0.66 3 1 C0.47211993 3.79872437 -1.20411134 5.45773019 -5 6 C-5 5.34 -5 4.68 -5 4 C-4.01 4 -3.02 4 -2 4 C-2 3.01 -2 2.02 -2 1 C-1.34 0.67 -0.68 0.34 0 0 Z " fill="#636669" transform="translate(293,284)"/>
<path d="M0 0 C2.31 0 4.62 0 7 0 C6.01 0.33 5.02 0.66 4 1 C3.67 1.99 3.34 2.98 3 4 C2.01 3.67 1.02 3.34 0 3 C0 2.01 0 1.02 0 0 Z " fill="#1F2028" transform="translate(289,248)"/>
<path d="M0 0 C1.67542976 0.28604898 3.34385343 0.61781233 5 1 C5 1.66 5 2.32 5 3 C3.35 3.33 1.7 3.66 0 4 C-0.33 3.01 -0.66 2.02 -1 1 C-0.67 0.67 -0.34 0.34 0 0 Z " fill="#101B25" transform="translate(494,240)"/>
</svg>
